<?xml version="1.0" encoding="utf-8"?>
<!-- Generator: Adobe Illustrator 26.0.3, SVG Export Plug-In . SVG Version: 6.00 Build 0)  -->
<svg version="1.1" xmlns="http://www.w3.org/2000/svg" xmlns:xlink="http://www.w3.org/1999/xlink" x="0px" y="0px"
	 viewBox="0 0 1920 1080" style="enable-background:new 0 0 1920 1080;" xml:space="preserve">
<style type="text/css">
	.st0{fill:#6C2D3E;}
	.st1{fill:#54151C;}
	.st2{fill:#6F1A25;}
	.st3{fill:#42131A;}
	.st4{fill:#41141B;}
	.st5{fill:#0D090A;}
	.st6{fill:#251218;}
	.st7{fill:#240F14;}
	.st8{fill:#F2F2F2;}
	.st9{fill:#5E5C5C;}
</style>
<g id="Layer_4">
	<g>
		<polyline class="st0" points="0.1,0 1920.1,0 1920.1,1080 0.1,1080 		"/>
	</g>
</g>
<g id="Layer_2">
	<path class="st1" d="M1920.1,270.01v541.98H0.1V398.52c0.69-4.98,1.43-10,2.74-15.05c0.31,3.4,0.61,6.8,0.92,10.19
		c4.7-13.65,0.6-29.06,9.24-41.67c0.52,0.03,1.05,0.06,1.57,0.09v44.77c0.44,0.05,0.88,0.11,1.32,0.16
		c1.66-3.33,3.32-6.67,4.98-10.01c0.49-0.02,0.98-0.04,1.48-0.06c1.11,6.6,2.23,13.2,3.34,19.8c0.38,2.26-0.67,5.08,3.32,5.63
		c0.98,0.14,1.74,2.92,2.33,4.58c1.84,5.11,3.54,10.26,5.3,15.4h1.51c3.05-10.19,6.11-20.37,9.16-30.55
		c0.49,0.02,0.98,0.04,1.47,0.06c1.13,7.29,2.26,14.57,3.39,21.83c2.1-0.28,5.23-1.56,6.2-0.63c1.73,1.65,2.22,4.6,3.08,7.06
		c0.37,1.08,0.41,2.29,0.53,3.45c0.51,5.05,6.9,8.23,11.26,5.27c2.41-1.63,1.55-3.53-0.98-4.89c-4.01-2.17-3.88-2.88,0.13-5.36
		c1.45-0.89,2.56-2.33,3.96-3.64c0.56,0.43,1.3,1.02,2.24,1.76c5.08-6.09-3.92-5.14-4.11-9.31c2.25-1.75,5-3.89,8.39-6.52
		c-2.15-0.55-3.6-0.57-4.55-1.25c-1.41-1.02-3.08-2.36-3.45-3.85c-0.23-0.91,1.79-2.34,2.74-3.58c1.25-1.64,2.99-3.17,3.55-5.03
		c0.85-2.84,0.54-6.01,1.36-8.85c0.59-2.02,2.23-3.73,3.4-5.58c2.12,1.37,4.77,2.34,6.22,4.22c1.55,2.01,1.84,4.94,2.93,7.35
		c2.54,5.59,6.4,9.74,14.86,9.88c-3.3,3.88-5.67,6.17-7.38,8.85c-1.12,1.75-1.29,4.08-1.89,6.14c1.97,0.51,3.91,1.21,5.91,1.44
		c1.28,0.15,2.68-0.68,3.97-0.55c2.75,0.28,4.77,1.3,2.68,4.51c-0.55,0.84-1.16,1.64-1.71,2.48c-4.83,7.37-4.76,7.56,3.38,10.45
		c4.48,1.59,4.75,4.19,0.36,11.08c2.97,0.7,5.53,1.31,8.9,2.11c2.03,5.5,6.88,7.48,13.3,3.89c13.02-7.28,26.7-12.79,41.42-15.65
		c6.62-1.29,11.49-6.71,12.51-13.58c0.35-2.28,1.44-4.45,2.19-6.67c0.59-0.09,1.18-0.18,1.76-0.26c1.49,2.43,2.78,5,4.52,7.25
		c2.05,2.66,4.52,5,6.75,7.53c6.81,7.75,17.04,5.67,25.56,8.45c18.22,5.93,35.29,14.17,52.14,23.03c2.37,1.25,4.76,2.47,8.16,4.23
		c1.33-6.62,2.56-12.79,3.8-18.95c0.44-0.07,0.88-0.14,1.33-0.21c1.04,4.4,3.3,8.92,2.88,13.18c-0.91,9.02,2.76,13.86,11.44,15.71
		c2.42-1.95,5.05-4.08,8.5-6.86c1.3,4,2.04,7.01,3.27,9.82c0.79,1.82,2.29,3.33,3.47,4.99c0.94-1.62,2.3-3.13,2.73-4.87
		c1.86-7.44,3.43-14.94,5.13-22.42c0.35-1.53,0.81-3.03,1.55-5.74c3.42,8.59,3.43,16.29,3.17,24.05c-0.12,3.48-0.61,7.13,0.26,10.4
		c0.63,2.38,3.16,5.88,4.94,5.94c2.25,0.07,5.24-2.41,6.76-4.58c2.32-3.31,3.66-7.31,6.64-11c1.11,3.5,2.22,7,3.86,12.18
		c2.17-4.21,3.56-7.24,5.3-10.08c0.5-0.81,1.94-1.17,3.02-1.5c6.25-1.95,8.01-4.09,7.61-10.49c-0.2-3.24,0.09-5.93,3.9-6.18
		c3.76-0.26,3.93,2.97,4.48,5.54c0.25,1.13,0.36,2.33,0.26,3.48c-0.42,4.6,1.49,6.52,6.84,5.24c0.76-4.41,1.38-9.15,2.48-13.78
		c0.4-1.67,1.95-3.08,2.98-4.61c1.25,1.74,3.41,3.39,3.58,5.22c0.51,5.46,0.2,10.99,0.29,16.48c0.03,1.56,0.33,3.11,0.6,5.51
		c1.99-1.46,3.22-2.25,4.33-3.19c13.34-11.27,28.36-14.43,45.4-9.99c8.11,2.11,16.57,2.94,24.87,4.34c0.83,0.14,1.68,0.22,2.52,0.21
		c9.84-0.14,11.52-1.67,12.45-11.28c0.38-3.98,0.41-8.03,1.17-11.93c0.67-3.41,2.15-6.66,3.27-9.98c0.68,0.12,1.36,0.24,2.05,0.36
		v25.34c0.5,0.26,1.01,0.51,1.52,0.77c2.38-1.88,5-3.55,7.11-5.69c6.36-6.44,12.16-13.46,18.86-19.52
		c5.41-4.89,11.39-9.49,17.86-12.82c8.42-4.33,16-9.38,21.66-16.84c6.96-9.16,16.16-12.29,27.19-10.37
		c12.74,2.23,23.66-1.02,33.28-9.36c2.91-2.52,6.09-4.75,9.19-7.06c11.13-8.27,20.55-8.61,32.11-0.92
		c13.03,8.67,23.49,20.04,32.96,32.22c16.53,21.28,32.23,43.19,49.1,64.2c13,16.2,27.31,31.33,46.78,40.49
		c14.83,6.99,30.32,7.25,46.05,4.44c1.33-0.23,2.98-2.88,3.13-4.52c0.43-4.67,0.15-9.39,0.15-14.1c0.68-0.03,1.36-0.07,2.04-0.1
		c0.84,3.99,1.48,8.03,2.62,11.93c0.46,1.6,2.05,4.14,3.03,4.09c2.66-0.12,5.85-0.46,6.17-4.44c0.35-4.28,1.04-8.53,1.59-12.79
		c0.52-0.14,1.05-0.29,1.58-0.44c1.08,2.67,2.1,5.37,3.27,8c1.05,2.37,0.6,6.03,4.74,5.96c3.94-0.06,6.55-1.59,7.62-5.78
		c1.67-6.52,3.85-12.9,6.58-19.31c0.96,5.09,1.91,10.18,3.05,16.23c7.53-5.09,14.38-9.55,20.98-14.34c1.28-0.93,1.88-3.06,2.35-4.76
		c1.62-5.93,3.05-11.91,4.65-18.25c1.79,0.83,3.24,1.49,5.39,2.48c0.8-3.74,1.53-7.17,2.27-10.6c0.42-0.08,0.85-0.16,1.27-0.23
		c0.47,2.35,0.85,4.73,1.42,7.06c0.57,2.3-0.11,5.84,4.6,4.29c0.94-0.31,2.63,1.58,5.03,3.13c0.46-2.95,1.05-5.49,1.22-8.07
		c0.34-4.95-1.43-10.73,6.02-12.45c0.69-0.16,1.11-2.25,1.33-3.5c0.65-3.68,1.13-7.39,1.71-11.3c0.84,0.44,1.36,0.56,1.38,0.75
		c0.69,5.63,6.81,9.11,6.21,15.37c-0.08,0.89,2.06,2.72,3.22,2.75c1.09,0.04,2.53-1.55,3.27-2.74c0.65-1.07,0.19-2.79,0.85-3.85
		c1.23-2,2.92-3.73,4.41-5.57c0.43,0.28,0.86,0.57,1.28,0.85c0.74-3.12,1.47-6.23,2.2-9.35c0.38-0.01,0.75-0.01,1.12-0.02
		c1.77,4.39,3.54,8.77,5.89,14.6c3.61-7.87,6.67-14.52,9.85-21.45c0.72,0.51,1.8,1.27,3.72,2.64v-19.82
		c0.51-0.06,1.03-0.13,1.55-0.19c4.26,5.01,2.53,11.72,4.36,18.12c0.69-1.32,1.15-2.21,1.68-3.23c0.88,4.31,1.75,8.6,2.63,12.89
		c0.56-0.03,1.11-0.06,1.67-0.09c0.55-2.04,1.09-4.08,1.66-6.25c1.09,2.63,1.95,5.01,3.18,7.18c0.09,0.18,2.67-1,2.77-1.04
		c6.1,0.83,11.24,1.94,16.42,2.17c27.98,1.28,54.99-3.95,80.49-14.82c28.94-12.34,57.19-26.23,85.75-39.43
		c21.89-10.12,44.06-19.31,67.97-24.04c35.17-6.95,67.72-0.83,98.12,17.54c2.84,1.72,5.61,3.54,9.36,5.91
		c1.43-5.92,2.69-11.12,3.95-16.33c0.43-0.09,0.85-0.19,1.28-0.29c0.88,3.36,2.55,6.73,2.5,10.07c-0.13,8.24,2.66,13.81,11.64,14.99
		c2.49-1.76,5.25-3.71,8.46-5.98c2.16,4.92,3.95,8.99,5.74,13.05c0.8-0.02,1.61-0.04,2.42-0.06c2.55-9.09,5.11-18.18,7.67-27.27
		c0.41-0.02,0.82-0.04,1.24-0.07c0.49,3.51,0.84,7.04,1.51,10.51c1.23,6.33,2.27,12.74,4.13,18.89c1.23,4.06,3.71,4.33,6.7,1.15
		c2.91-3.11,5.41-6.6,8.4-10.3c1.32,3.14,2.5,5.98,3.32,7.93c5.2-1.52,10.07-2.61,14.63-4.45c1.94-0.78,3.43-3.01,4.73-4.86
		c1.11-1.56,1.64-3.52,2.86-6.29c1.8,5.09,3.27,9.23,5.04,14.23c3.73-7.86,7.14-15.01,10.54-22.17c0.65,0.08,1.31,0.16,1.96,0.24
		c0.49,2.26,1.2,4.49,1.43,6.78c1.06,10.6,1.88,21.23,3.03,31.82c0.31,2.86,1.48,5.63,2.56,9.52c1.87-2.35,2.95-3.72,4.4-5.55
		c2.26,3.17,4.44,6.21,7.49,10.48c2.07-8.38,3.86-15.66,5.66-22.93c0.49-0.04,0.97-0.07,1.46-0.1c0.55,3.56,1.17,7.12,1.63,10.69
		c0.61,4.75,0.95,9.55,1.76,14.26c0.21,1.18,1.59,2.74,2.74,3.07c5.95,1.72,12,3.1,18.25,4.66c0.55-2.07,0.92-3.48,1.56-5.89
		c2.78,2.89,5.1,5.32,7.43,7.75l1.5-0.72c1.25-7.46,2.49-14.92,3.73-22.38c0.21-0.02,0.43-0.04,0.65-0.06
		c0.64,6.73,1.15,13.47,2.02,20.16c0.2,1.57,1.3,3.86,2.53,4.3c3.06,1.07,3.58-1.53,3.74-3.78c0.45-6.79,0.82-13.59,1.2-20.39
		c0.21-3.63,0.37-7.27,0.55-10.91c0.43-0.04,0.87-0.07,1.31-0.1c0.48,5.2,0.96,10.4,1.44,15.61c0.63,0.09,1.26,0.19,1.89,0.28
		c7.98-8.31,4.15-19.52,6.55-29.48c0.53,4.23,1.06,8.45,1.59,12.68c4.34-14.24,0.86-29.95,8.94-43.19c0.55,0.06,1.1,0.12,1.66,0.18
		v45.4c0.41,0.1,0.82,0.19,1.23,0.29c1.68-3.28,3.35-6.56,5.03-9.83c0.48-0.03,0.96-0.06,1.44-0.09c1.14,6.74,2.29,13.48,3.41,20.22
		c0.32,1.95-0.66,4.56,3.06,4.54c0.7,0,1.59,2.23,2.07,3.55c2.01,5.59,3.89,11.23,5.82,16.85c0.5-0.02,1-0.03,1.5-0.05
		c2.97-10.14,5.95-20.28,8.93-30.42c0.46-0.03,0.92-0.06,1.39-0.1c1.08,7.34,2.16,14.68,3.25,22.01c6.31-0.77,8.7-4.99,8.62-11.42
		c0.54,0.14,1.08,0.28,1.62,0.42c2.62,3.69,5.24,7.39,8.26,11.64c-0.34,0.67-1.16,2.29-2.28,4.52c1.89,0.8,3.59,1.52,5.72,2.42
		c0.64-2.58,1.15-4.6,1.82-7.29c1.05,1.52,1.74,2.53,2.91,4.23c2.14-7.8,4.12-15.04,6.1-22.27c0.41,0.04,0.81,0.07,1.21,0.11
		c1.35,10.51,2.69,21.01,4,31.23c5.14,1.82,8.07,1,10.89-3.8c2.03-3.45,6.88-5.28,10.44-7.87c1.93-1.41,3.8-2.89,5.7-4.34
		c-1.59-1.81-3.17-3.63-4.77-5.42c-1.19-1.33-2.41-2.63-3.61-3.94c1.85-0.41,3.69-1.07,5.56-1.17c3.34-0.2,6.71-0.06,10.06-0.06
		c0.11-0.49,0.21-0.98,0.31-1.48c-2.21-2.29-4.42-4.58-7.47-7.73c4.19-0.64,7.34-0.8,10.26-1.68c1.69-0.5,3.02-2.15,4.52-3.28
		c-1.46-1.19-2.78-2.62-4.41-3.49c-1.96-1.04-4.18-1.59-6.15-3.51c3.03-0.86,6.07-1.73,10.09-2.87c-2.51-3.05-4.34-5.26-6.97-8.45
		c3.44-0.17,6.02-0.06,8.49-0.52c1.46-0.28,2.73-1.48,4.09-2.26c-0.83-1.13-1.47-2.54-2.56-3.34c-1.7-1.26-3.71-2.12-7.04-3.95
		c3.64-1.09,5.97-1.58,8.11-2.49c1.57-0.67,2.91-1.89,4.36-2.87c-1.02-1.2-1.95-2.5-3.08-3.58c-1.15-1.1-2.51-1.99-5.02-3.94
		c3.03-0.42,4.66-0.37,6.06-0.92c1.43-0.56,2.64-1.71,3.94-2.6c-1.13-0.96-2.22-1.99-3.41-2.87c-0.64-0.48-1.46-0.73-2.78-1.37
		c2.74-2.02,5.13-3.78,7.84-5.78c-1.6-1.38-2.7-2.32-4.15-3.57c1.28-1.44,2.53-2.85,3.9-4.38c-1.62-1.24-3.09-2.37-3.37-2.58
		c1.41-4.48,2.42-7.93,3.6-11.31c0.56-1.62,1.47-3.13,2.22-4.69c1.61,0.98,3.69,1.62,4.72,3.01c3.84,5.18,6.3,10.74,5.9,17.59
		c-0.12,1.96,3.49,4.13,5.98,6.85c0.02-0.02,0.02-0.04,0.03-0.04c0,0.08-0.32,0.97-0.86,1.7c-2.04,2.74-2.12,4.76,1.65,6.01
		c2.98,0.98,3.91,2.81,2.15,5.78c-0.91,1.55-1.23,3.43-1.82,5.17c2.06,0.32,4.13,0.66,6.2,0.95c0.63,0.08,1.27,0.01,2.79,0.01
		c-0.85,2.29-1.44,4.23-2.28,6.05c-1.71,3.76-1.36,6.46,3.35,7.35c1.15,0.22,2.27,0.66,3.36,1.12c3.88,1.63,4.05,2.88,0.83,5.36
		c-0.92,0.71-1.87,1.42-2.68,2.25c-4.3,4.38-3.97,7,1.22,10.25c0.98,0.61,1.98,1.2,2.6,1.58c0.99-1.73,2.16-3.11,2.62-4.69
		c2.15-7.47,4.22-14.97,5.22-22.72c0.21-1.6,1.83-3.03,2.79-4.53c1.36,0.98,3.32,1.68,3.96,3.01c2.32,4.75,4.18,9.71,6.23,14.61
		c1.45-0.56,2.93-1.15,4.42-1.73c0.44,0.56,0.88,1.12,1.31,1.68c-2.16,1.12-4.33,2.24-7.14,3.69c2.78,2.17,4.01,3.13,5.45,4.26
		c-0.45,1.12-0.92,2.32-1.49,3.75c0.52,0,1.02,0.15,1.35-0.03c1.94-1,3.94-1.95,5.71-3.21c0.82-0.58,1.64-1.83,1.63-2.78
		c-0.03-15.91-0.22-31.82-0.28-47.73c-0.01-1.79,0.56-3.58,0.89-5.37c0.15-0.8,0.72-1.7,0.5-2.38c-1.18-3.66-2.55-7.26-4.08-11.52
		c3.42-0.66,5.98-1.15,7.7-1.49c-0.41,1.85-1.7,4.6-1.03,5.19c2.99,2.65,6.35,2.03,9.91-0.57c-1.24-1.08-2.2-1.92-4.16-3.63
		c10.02,1.45,14.38,7.86,18.89,15.53c1.37-2.39,2.27-3.99,3.2-5.58c5.86-10.08,11.69-20.17,17.64-30.19
		c0.83-1.41,2.15-2.57,3.4-3.68c5.36-4.74,9.32-3.71,11.47,3.15c1.35,4.34,4.7,3.19,6.83,1.97c3.43-1.96,6.42-4.78,9.27-7.56
		c2.87-2.8,5.29-6.04,7.99-9.02c3.83-4.23,8.53-6.09,14.11-4.06c9.72,3.52,15.2,1.48,22.99-10.66
		C1902.86,284.58,1909.13,275.09,1920.1,270.01z"/>
</g>
<g id="Layer_3">
	<g>
		<path class="st2" d="M0.1,1081h1920V683.22c-639.98,14.03-1280.23,8.55-1920-16.43V1081z"/>
	</g>
</g>
<g id="Layer_7">
	<path class="st3" d="M712.81,686.55l44.68,23.99l207.27,116.03c0,0,72.47,40.57,111.58,67.2c13.65,9.3,27.73,17.94,42.27,25.78
		c12.81,6.91,27.44,14.49,38.13,19.12c2.21,0.96,4.51,1.68,6.81,2.39c2.12,0.65,12.21,5.63,56.49,32.09
		c10.29,6.15,23.74,4.68,32.18-4.15c1.28-1.34,2.42-2.82,3.34-4.45c0,0,19.6-45.88,20.37-59.92c0,0,4.35-17.72,12.22-27.27
		c0,0,6.77-14.81-12.25-27.02c0,0-87.89-40.42-115.68-55.97c0,0-118.88-62.93-131.84-69.67c0,0-26.67-16.32-57.31-34.98"/>
	<path class="st3" d="M1324.74,689.51l33.26,21.03l207.27,116.03c0,0,72.47,40.57,111.58,67.2c13.65,9.3,27.73,17.94,42.27,25.78
		c12.81,6.91,27.44,14.49,38.13,19.12c2.21,0.96,4.51,1.68,6.81,2.39c2.12,0.65,12.21,5.63,56.49,32.09
		c10.29,6.15,23.74,4.68,32.18-4.15c1.28-1.34,2.42-2.82,3.34-4.45c0,0,19.6-45.88,20.37-59.92c0,0,4.35-17.72,12.22-27.27
		c0,0,6.77-14.81-12.25-27.02c0,0-87.89-40.42-115.68-55.97c0,0-118.88-62.93-131.84-69.67c0,0-27.95-17.1-58.59-35.76"/>
</g>
<g id="Layer_5">
	<path d="M1191.82,1l7.36,99.95c4.13,56.1,6.2,112.34,6.2,168.59v73.81v269.73c0,0,0,94.31-4.61,147.83
		c-1.61,18.69-2.34,37.43-2.05,56.18c0.25,16.53,0.85,35.23,2.17,48.38c0.27,2.72,0.82,5.4,1.38,8.08
		c0.52,2.46,1.17,15.22-0.46,73.77c-0.38,13.61,8.37,26.11,21.54,29.58c2,0.53,4.06,0.83,6.14,0.83c0,0,55.25-6.03,69.32-13.06
		c0,0,19.59-5.53,33.15-3.01c0,0,18.08-1.51,19.59-27.12c0,0-8.54-109.5-8.54-145.66c0,0-3.52-152.7-4.02-169.27
		c0,0,4.52-120.55,5.02-140.14c0,0,0.5-122.06,1-142.65L1346.52,1H1191.82z"/>
	<path d="M1920.1,1h-125.29l7.36,99.95c4.13,56.1,6.2,112.34,6.2,168.59v73.81v269.73c0,0,0,94.31-4.61,147.83
		c-1.61,18.69-2.34,37.43-2.05,56.18c0.25,16.53,0.85,35.23,2.17,48.38c0.27,2.72,0.82,5.4,1.38,8.08
		c0.52,2.46,1.17,15.22-0.46,73.77c-0.38,13.61,8.37,26.11,21.54,29.58c2,0.53,4.06,0.83,6.14,0.83c0,0,55.25-6.03,69.32-13.06
		c0,0,8.57-2.42,18.3-3.33V1z"/>
</g>
<g id="Layer_6">
	<polygon class="st4" points="430.24,0 584.23,0 584.23,688.29 430.24,1024.59 	"/>
	<polygon class="st5" points="473.24,932.53 545.38,776.07 545.38,266.42 473.24,422.87 	"/>
	<rect class="st6" width="430.24" height="1024.59"/>
</g>
<g id="door">
	<polygon class="st7" points="473.24,932.53 545.38,776.07 545.38,266.42 473.24,422.87 	"/>
</g>
<g id="bob">
	<g>
		<g>
			<path class="st8" d="M1766.63,874.27c1.52-0.74,2.73-1.2,3.32-1.42c0.48-0.18,2.81-1.04,4.74-1.42c1.02-0.2,5.48-1.09,9.96,0.95
				c2.66,1.21,4.22,2.95,7.11,6.16c0.96,1.07,1.9,2.29,3.79,4.74c2.2,2.85,3.87,5.14,4.27,5.69c5.57,7.73,14.87,26.77,19.91,41.72
				c1.56,4.62,2.06,6.93,2.37,9.01c0.28,1.87,0.27,2.73,0.95,9.01c0.27,2.51,0.26,2.29,0.47,4.27c0.6,5.6,0.91,8.45,0.95,10.9
				c0.03,1.43-0.47,7.11-0.95,8.53c-0.04,0.11-0.5,1.85,0,2.37c0.36,0.37,0.84,0.9,0.95,0.95c1.9,0.95,11.68,5.49,17.54,9.48
				c0,0,5,2.92,8.06,6.64c0.53,0.65,0.85,1.23,0.95,1.42c0.27,0.52,1.2,2.25,0.95,3.79c-0.25,1.53-1.59,2.54-2.84,3.32
				c-6.92,4.3-12.8,4.74-12.8,4.74c-9.42,0.71-17.16-2.92-25.13-7.59c-5.27-3.09-9.29-4.31-11.85-7.59
				c-0.55-0.71-0.71-2.96-2.37-5.22c-0.4-0.55-0.69-1.52-2.37-1.9c-5.08-1.13-14.1-0.59-17.07,0.95c-1,0.52-4.37,8.39-7.59,14.22
				c-1.37,2.48-0.85,1.88-4.27,8.06c-4.34,7.86-7.02,11.12-8.06,12.33c-2.39,2.79-3.87,3.93-5.22,4.74
				c-2.98,1.8-5.71,2.25-6.64,2.37c-1.51,0.2-3.88,0.49-6.64-0.47c-1.73-0.61-4.08-1.43-5.22-3.79c-0.92-1.93-0.42-3.94,0.47-6.64
				c2.16-6.5,4.67-11.21,6.16-14.22c2.17-4.37,1.08-2.87,4.74-10.9c4.15-9.09,6.55-13.38,8.06-15.65c0.95-1.42,4.63-8.33,4.74-11.38
				c0.16-4.22-0.41-6.75-0.95-10.9c-0.95-7.29-0.38-7.49-1.42-14.22c-0.18-1.16-0.59-3.3-1.42-7.59c-1.81-9.37-2.1-10.3-2.84-14.7
				c-0.82-4.86-1.24-7.37-1.42-10.9c-0.3-5.75,0.24-9.13,0.47-10.43c0.41-2.26,0.87-4.71,2.37-7.59c0.3-0.58,1.51-2.82,3.79-5.22
				C1759.91,877.52,1763.37,875.85,1766.63,874.27z"/>
			<path class="st9" d="M1743.21,1027.21c-1.31,0-2.88-0.17-4.57-0.76c-1.86-0.65-4.67-1.64-6.07-4.56
				c-1.19-2.48-0.52-4.98,0.4-7.76c1.95-5.88,4.21-10.37,5.71-13.35l0.53-1.07c1.02-2.04,1.29-2.75,1.71-3.83
				c0.46-1.2,1.1-2.83,3.01-7.03c3.49-7.66,6.17-12.84,8.18-15.85c1.12-1.67,4.4-8.12,4.49-10.6c0.12-3.22-0.2-5.43-0.6-8.24
				c-0.11-0.75-0.22-1.55-0.33-2.41c-0.46-3.51-0.57-5.44-0.67-7.14c-0.11-1.92-0.21-3.57-0.75-7.05c-0.18-1.14-0.62-3.41-1.41-7.53
				c-0.76-3.94-1.25-6.39-1.62-8.23c-0.51-2.54-0.79-3.94-1.23-6.5c-0.81-4.76-1.25-7.38-1.44-11.08c-0.21-4.13-0.05-7.76,0.5-10.78
				c0.39-2.17,0.88-4.88,2.52-8.01c0.57-1.09,1.86-3.27,4.04-5.55c3.42-3.58,7.12-5.37,10.38-6.95l0.66,1.35l-0.65-1.35
				c1.16-0.56,2.32-1.06,3.45-1.48c0.67-0.25,3.01-1.1,4.97-1.49c4.92-0.98,8.63,0.03,10.87,1.05c2.94,1.34,4.7,3.29,7.6,6.52
				c1,1.12,1.96,2.36,3.87,4.83c2.53,3.28,4.28,5.7,4.3,5.73c6.02,8.36,15.23,27.64,20.12,42.12c1.57,4.66,2.11,7.08,2.43,9.27
				c0.15,1.02,0.22,1.77,0.35,3.13c0.12,1.22,0.28,2.97,0.6,5.94c0.14,1.3,0.21,1.87,0.26,2.39c0.06,0.48,0.11,0.93,0.21,1.88
				c0.63,5.87,0.91,8.56,0.96,11.04c0.03,1.46-0.47,7.38-1.03,9.04c-0.08,0.27-0.16,0.77-0.16,1.05l0.09,0.09
				c0.16,0.16,0.31,0.33,0.42,0.44c0.26,0.13,0.62,0.3,1.06,0.51c3.39,1.64,11.33,5.48,16.46,8.96c0.56,0.33,5.35,3.22,8.42,6.95
				c0.43,0.52,0.81,1.1,1.12,1.68c0.37,0.7,1.42,2.73,1.1,4.73c-0.34,2.12-2.07,3.44-3.53,4.35c-6.73,4.18-12.61,4.88-13.48,4.96
				l0,0c-10.4,0.77-18.87-3.61-26-7.79c-1.56-0.92-2.99-1.65-4.37-2.36c-3.18-1.64-5.92-3.05-7.91-5.59
				c-0.37-0.48-0.56-1.07-0.8-1.82c-0.31-0.99-0.7-2.21-1.6-3.43c-0.09-0.13-0.19-0.27-0.28-0.43c-0.28-0.45-0.44-0.72-1.2-0.89
				c-4.93-1.09-13.27-0.49-15.91,0.75c-0.56,0.69-2.05,3.7-3.25,6.14c-1.19,2.41-2.53,5.15-3.86,7.54
				c-0.51,0.93-0.76,1.42-1.05,2.01c-0.49,1-1.11,2.23-3.22,6.05c-3.05,5.52-5.82,9.75-8.23,12.58c-2.61,3.05-4.23,4.23-5.58,5.05
				c-2.98,1.8-5.8,2.38-7.21,2.57C1745.29,1027.09,1744.34,1027.21,1743.21,1027.21z M1778.33,872.55c-1.02,0-2.13,0.1-3.34,0.34
				c-1.75,0.35-3.89,1.13-4.51,1.36c-1.05,0.39-2.12,0.85-3.19,1.37l-0.01,0c-3.18,1.54-6.47,3.13-9.52,6.32
				c-2,2.09-3.15,4.11-3.55,4.88c-1.43,2.73-1.85,5.08-2.22,7.16c-0.5,2.79-0.66,6.19-0.45,10.09c0.18,3.38,0.56,5.73,1.4,10.73
				c0.43,2.52,0.7,3.9,1.21,6.41c0.37,1.85,0.87,4.3,1.63,8.25c0.83,4.29,1.25,6.44,1.43,7.64c0.56,3.62,0.67,5.42,0.78,7.33
				c0.1,1.73,0.21,3.53,0.65,6.93c0.11,0.85,0.22,1.63,0.33,2.38c0.42,2.96,0.76,5.29,0.63,8.78c-0.13,3.6-4.18,10.93-4.99,12.16
				c-1.89,2.84-4.56,8.03-7.94,15.44c-1.88,4.12-2.5,5.71-2.94,6.87c-0.43,1.11-0.74,1.91-1.82,4.08l-0.54,1.08
				c-1.54,3.07-3.66,7.28-5.54,12.95c-0.88,2.66-1.19,4.17-0.55,5.52c0.86,1.8,2.72,2.45,4.36,3.02c2.47,0.87,4.65,0.58,5.95,0.4
				c1.19-0.16,3.55-0.65,6.06-2.17c1.14-0.69,2.52-1.7,4.85-4.43c2.29-2.67,4.94-6.74,7.89-12.08c2.08-3.76,2.68-4.97,3.16-5.94
				c0.31-0.62,0.57-1.14,1.11-2.12c1.29-2.34,2.62-5.04,3.79-7.42c2.75-5.57,3.48-6.93,4.42-7.41c3.35-1.73,12.64-2.29,18.08-1.08
				c2.01,0.45,2.73,1.62,3.11,2.25c0.05,0.08,0.09,0.15,0.14,0.22c1.19,1.62,1.7,3.23,2.04,4.3c0.11,0.35,0.25,0.78,0.32,0.91
				c1.56,1.99,3.92,3.21,6.9,4.74c1.35,0.7,2.88,1.49,4.51,2.44c8.36,4.9,15.68,8.03,24.25,7.38c0.08-0.01,5.66-0.5,12.12-4.52
				c0.98-0.61,2.01-1.36,2.16-2.29c0.11-0.67-0.15-1.63-0.78-2.83c-0.22-0.43-0.49-0.83-0.79-1.2c-2.86-3.47-7.61-6.27-7.66-6.29
				l-0.09-0.06c-4.95-3.37-12.78-7.15-16.12-8.77c-0.55-0.27-0.98-0.47-1.25-0.61c-0.31-0.16-0.53-0.38-1.09-0.97l-0.26-0.27
				c-1.19-1.23-0.44-3.62-0.35-3.89c0.37-1.12,0.9-6.58,0.87-8.03c-0.04-2.34-0.32-5-0.94-10.77c-0.1-0.94-0.15-1.38-0.21-1.86
				c-0.06-0.52-0.13-1.09-0.27-2.41c-0.32-2.98-0.49-4.74-0.61-5.97c-0.13-1.35-0.19-2.03-0.33-2.98c-0.3-2.03-0.81-4.3-2.31-8.75
				c-5.22-15.49-14.58-34.21-19.71-41.32c-0.02-0.02-1.74-2.41-4.24-5.65c-1.86-2.42-2.8-3.63-3.72-4.65
				c-2.83-3.15-4.24-4.72-6.62-5.8C1782.72,873.14,1780.8,872.55,1778.33,872.55z M1824.6,973.74L1824.6,973.74
				C1824.61,973.74,1824.61,973.74,1824.6,973.74z"/>
		</g>
		<g>
			<path class="st8" d="M1700.78,742.7c-4.74,5.91-7.18,13.32-9.22,20.61c-1.42,5.05-3.62,11.09-4.43,17.99
				c-3.81,32.35-1.25,54.74-0.14,61.33c1.89,11.27,4.93,16.66,8.14,22.95c7.45,14.61,27.55,16.38,38.26,18.5
				c6.4,1.27,11.19,1.56,19.22,2.04c11.45,0.69,20.85,0.31,33.07-0.2c9.1-0.38,13.66-0.58,17.45-0.99
				c14.67-1.61,24.46-2.68,34.98-8.6c5.8-3.26,15.97-10.33,22.52-22.58c3.36-6.28,4.75-12.77,7.53-25.76
				c1.65-7.7,2.84-13.26,3.26-21.01c0.12-2.22,0.63-12.87-2.08-27.08c-2.1-11.04-3.88-20.39-10.45-30.79
				c-6.93-10.99-15.25-16.89-17.22-18.25c-8.09-5.57-15.44-7.63-21.53-9.28c-8.73-2.36-17.55-2.75-34.83-3.43
				c-9.54-0.37-14.31-0.56-20.44-0.25c-7.61,0.39-17.53,0.96-29.52,4.45c-9.45,2.76-17.97,5.24-26.61,12.3
				C1705.6,737.23,1702.97,739.97,1700.78,742.7z"/>
			<path class="st9" d="M1765.41,887.98c-4.16,0-8.39-0.11-12.89-0.38c-8.05-0.48-12.92-0.77-19.42-2.06
				c-1.25-0.25-2.63-0.49-4.1-0.75c-11.27-1.98-28.29-4.98-35.21-18.54l-0.64-1.25c-3.01-5.86-5.84-11.39-7.65-22.14
				c-0.7-4.18-3.99-26.78,0.13-61.75c0.64-5.46,2.12-10.33,3.42-14.64c0.38-1.24,0.74-2.43,1.06-3.58
				c1.94-6.92,4.43-14.84,9.5-21.14c2.44-3.04,5.19-5.82,8.18-8.27c8.87-7.26,17.74-9.85,27.14-12.58
				c12.4-3.62,22.91-4.15,29.86-4.51c6.19-0.32,10.99-0.13,20.55,0.25c16.85,0.66,26.12,1.03,35.19,3.48
				c5.71,1.54,13.52,3.66,21.99,9.49c3.11,2.14,11.05,8.24,17.63,18.68c6.72,10.65,8.54,20.22,10.65,31.31
				c2.53,13.26,2.31,23.61,2.1,27.45c-0.43,7.86-1.63,13.47-3.29,21.23c-2.81,13.12-4.21,19.7-7.67,26.17
				c-6.78,12.67-17.39,19.96-23.11,23.18c-10.78,6.07-20.63,7.14-35.54,8.78c-3.86,0.42-8.43,0.62-17.56,1
				C1778.63,887.71,1772.12,887.98,1765.41,887.98z M1771.1,719.24c-2.07,0-4.03,0.05-6.15,0.16c-7.22,0.37-17.11,0.88-29.17,4.4
				c-9.49,2.77-17.68,5.15-26.08,12.03c-2.83,2.31-5.43,4.94-7.74,7.82l0,0c-4.71,5.87-7.09,13.44-8.95,20.08
				c-0.33,1.16-0.69,2.37-1.07,3.63c-1.26,4.19-2.7,8.93-3.31,14.12c-4.16,35.3-0.57,58.39-0.15,60.91
				c1.72,10.29,4.46,15.62,7.36,21.26l0.64,1.25c6.23,12.23,22.37,15.07,33.05,16.95c1.49,0.26,2.89,0.51,4.16,0.76
				c6.3,1.25,11.09,1.54,19.01,2.01c11.61,0.7,21.49,0.28,32.92-0.2c9.06-0.38,13.6-0.57,17.35-0.98
				c14.55-1.59,24.16-2.65,34.41-8.41c5.44-3.06,15.52-9.98,21.94-21.98c3.26-6.09,4.64-12.53,7.38-25.37
				c1.63-7.64,2.81-13.15,3.23-20.77c0.2-3.73,0.41-13.79-2.05-26.72c-2.06-10.79-3.83-20.11-10.25-30.27
				c-6.29-9.97-13.84-15.78-16.8-17.81c-8.05-5.54-15.27-7.5-21.08-9.07c-8.39-2.27-16.64-2.68-34.5-3.38
				C1779.08,719.4,1774.92,719.24,1771.1,719.24z"/>
		</g>
		<g>
			<path class="st8" d="M1715.23,913.64c1.21-1.14,2.45-1.62,3.64-2.08c1.63-0.64,2.9-0.81,4.68-1.04c3.2-0.42,4.81-0.63,6.77,0
				c1.88,0.6,3.11,1.63,3.64,2.08c1.27,1.08,2.08,2.47,3.64,5.21c1.89,3.3,1.39,3.19,2.16,4.73c0.86,1.73,1.84,2.86,3.84,3.84
				c0.64,0.31,2.31-1.54,3.08-2.31c3.96-3.96,16.08-19.05,17.99-21.88c0.05-0.08,0.21-0.33,0.52-0.52c1.17-0.73,2.96,0.17,3.64,0.52
				c2.66,1.35,9.44,6.63,9.37,14.05c-0.02,1.79-0.43,3.3-0.52,3.64c-0.78,2.8-2.25,4.64-3.12,5.73c-5.29,6.53-7.92,9.81-10.93,12.49
				c-1.97,1.75-6.57,5.73-13.01,9.37c-3.5,1.97-5.38,3.03-8.33,3.64c-1.85,0.38-6.79,1.33-11.97-1.04c-3.49-1.6-5.46-3.96-7.81-6.77
				c-2.53-3.03-3.88-5.71-5.21-8.33c-1.9-3.76-2.78-6.56-3.64-9.37c-1.35-4.38-1.35-5.9-1.04-7.29
				C1712.77,917.68,1713.3,915.45,1715.23,913.64z"/>
			<path class="st9" d="M1737.67,953.14c-2.29,0-5.09-0.38-7.97-1.7c-3.8-1.74-5.9-4.25-8.33-7.17c-2.64-3.16-4.04-5.93-5.39-8.61
				c-2-3.96-2.92-6.96-3.74-9.6c-1.4-4.54-1.46-6.33-1.07-8.06c0.48-2.15,1.53-4.04,3.04-5.45l0,0c1.42-1.33,2.86-1.89,4.13-2.39
				c1.83-0.71,3.32-0.91,5.03-1.13c3.31-0.43,5.14-0.67,7.42,0.06c2.21,0.7,3.63,1.91,4.16,2.37c1.49,1.27,2.43,2.9,3.97,5.6
				c1.28,2.23,1.54,3.03,1.77,3.74c0.11,0.34,0.2,0.6,0.43,1.06c0.63,1.26,1.27,2.13,2.67,2.91c0.47-0.36,1.19-1.1,1.5-1.42
				l0.34-0.35c3.85-3.85,15.94-18.9,17.8-21.66c0.1-0.16,0.4-0.6,0.97-0.96c1.89-1.17,4.23,0.01,5.11,0.46
				c2.67,1.35,10.27,7.09,10.19,15.41c-0.02,1.84-0.41,3.43-0.58,4.03c-0.88,3.16-2.52,5.18-3.4,6.27l-0.52,0.64
				c-5.05,6.23-7.58,9.35-10.57,12.02c-4.19,3.73-8.65,6.95-13.28,9.56c-3.59,2.03-5.58,3.15-8.76,3.81
				C1741.72,952.77,1739.94,953.14,1737.67,953.14z M1716.26,914.73L1716.26,914.73c-0.74,0.7-1.72,1.95-2.17,3.92
				c-0.23,1.03-0.31,2.23,1.01,6.52c0.82,2.66,1.67,5.4,3.55,9.14c1.28,2.53,2.6,5.15,5.02,8.04c2.29,2.74,4.1,4.91,7.28,6.37
				c4.84,2.22,9.51,1.25,11.04,0.94c2.73-0.56,4.45-1.54,7.89-3.48c4.44-2.51,8.73-5.6,12.75-9.18c2.81-2.51,5.3-5.57,10.24-11.67
				l0.52-0.64c0.8-0.98,2.13-2.63,2.84-5.19c0.14-0.48,0.45-1.77,0.46-3.25c0.06-6.29-5.73-11.28-8.55-12.7
				c-1.63-0.83-2.1-0.63-2.17-0.58l-0.07,0.09c-1.95,2.89-14.11,18.04-18.17,22.1l-0.32,0.32c-1.45,1.49-2.95,3.01-4.48,2.27
				c-2.49-1.21-3.61-2.68-4.53-4.52c-0.33-0.66-0.46-1.07-0.59-1.47c-0.19-0.57-0.4-1.21-1.52-3.18c-1.54-2.69-2.26-3.91-3.32-4.81
				c-0.45-0.38-1.5-1.27-3.13-1.79c-1.64-0.52-3.05-0.34-6.12,0.06c-1.65,0.22-2.84,0.37-4.33,0.95
				C1718.31,913.39,1717.25,913.8,1716.26,914.73z"/>
		</g>
	</g>
</g>
</svg>
