<?xml version="1.0" encoding="utf-8"?>
<!-- Generator: Adobe Illustrator 26.0.3, SVG Export Plug-In . SVG Version: 6.00 Build 0)  -->
<svg version="1.1" id="Forest__x23_1__x28_Bush_2_x29_"
	 xmlns="http://www.w3.org/2000/svg" xmlns:xlink="http://www.w3.org/1999/xlink" x="0px" y="0px" viewBox="0 0 1920 1080"
	 style="enable-background:new 0 0 1920 1080;" xml:space="preserve">
<style type="text/css">
	.st0{fill:#6B2D3E;}
	.st1{fill:#55131B;}
	.st2{fill:#6E1A25;}
	.st3{fill:#43121A;}
	.st4{fill:#311114;}
	.st5{fill:#F2F2F2;}
	.st6{fill:#5E5C5C;}
	.st7{fill:#49131B;}
</style>
<g>
	<polyline class="st0" points="0.1,0 1920.1,0 1920.1,1080 0.1,1080 	"/>
</g>
<path class="st1" d="M1896.91,421.3c-7.68,12.13-13.09,14.18-22.67,10.65c-5.51-2.03-10.14-0.16-13.92,4.06
	c-2.66,2.98-5.05,6.22-7.88,9.02c-2.81,2.78-5.76,5.6-9.14,7.56c-2.1,1.22-5.4,2.36-6.74-1.97c-2.11-6.86-6.02-7.88-11.31-3.14
	c-1.23,1.11-2.54,2.27-3.36,3.67c-5.87,10.03-11.62,20.12-17.4,30.19c-0.91,1.59-1.81,3.19-3.16,5.58
	c-4.45-7.67-8.74-14.07-18.63-15.52c1.93,1.71,2.88,2.55,4.11,3.63c-3.51,2.6-6.83,3.21-9.78,0.57c-0.66-0.59,0.61-3.34,1.02-5.19
	c-1.7,0.33-4.22,0.83-7.6,1.49c1.51,4.26,2.86,7.86,4.03,11.52c0.21,0.67-0.34,1.57-0.49,2.38c-0.33,1.79-0.89,3.58-0.88,5.37
	c0.06,15.91,0.25,31.82,0.28,47.73c0,0.95-0.81,2.2-1.62,2.79c-1.74,1.26-3.72,2.2-5.63,3.21c-0.33,0.17-0.82,0.02-1.33,0.02
	c0.56-1.43,1.03-2.63,1.47-3.75c-1.42-1.13-2.63-2.08-5.38-4.26c2.77-1.45,4.91-2.57,7.05-3.69c-0.43-0.56-0.86-1.12-1.29-1.67
	c-1.47,0.58-2.93,1.16-4.36,1.73c-2.02-4.9-3.86-9.86-6.14-14.62c-0.64-1.32-2.57-2.03-3.9-3.01c-0.96,1.51-2.55,2.93-2.76,4.54
	c-0.99,7.75-3.03,15.25-5.15,22.72c-0.45,1.58-1.61,2.96-2.58,4.69c-0.61-0.38-1.59-0.97-2.56-1.58c-5.12-3.24-5.44-5.87-1.2-10.24
	c0.8-0.83,1.73-1.55,2.65-2.26c3.18-2.48,3.01-3.73-0.82-5.36c-1.07-0.46-2.18-0.9-3.31-1.12c-4.65-0.89-5-3.59-3.3-7.34
	c0.82-1.83,1.41-3.76,2.24-6.06c-1.49,0-2.13,0.07-2.75-0.01c-2.04-0.29-4.08-0.63-6.12-0.95c0.58-1.73,0.9-3.62,1.8-5.16
	c1.73-2.97,0.81-4.8-2.13-5.79c-3.72-1.25-3.64-3.26-1.63-6.01c0.63-0.86,0.96-1.94,0.82-1.65c-2.46-2.72-6.02-4.9-5.9-6.86
	c0.4-6.85-2.03-12.41-5.81-17.59c-1.02-1.39-3.08-2.03-4.66-3.01c-0.74,1.56-1.64,3.07-2.2,4.69c-1.17,3.38-2.15,6.82-3.55,11.31
	c0.27,0.21,1.72,1.34,3.32,2.58c-1.35,1.54-2.58,2.95-3.85,4.39c1.43,1.25,2.52,2.19,4.1,3.56c-2.68,2-5.04,3.76-7.74,5.78
	c1.31,0.64,2.12,0.89,2.75,1.36c1.17,0.89,2.25,1.91,3.36,2.87c-1.29,0.89-2.47,2.04-3.89,2.6c-1.37,0.55-2.99,0.5-5.98,0.91
	c2.48,1.95,3.82,2.84,4.95,3.94c1.12,1.08,2.03,2.38,3.04,3.58c-1.43,0.98-2.75,2.2-4.3,2.87c-2.11,0.91-4.4,1.4-8,2.49
	c3.29,1.82,5.27,2.68,6.95,3.95c1.07,0.81,1.7,2.21,2.53,3.34c-1.34,0.78-2.6,1.98-4.04,2.26c-2.44,0.47-4.98,0.35-8.38,0.52
	c2.6,3.19,4.4,5.4,6.88,8.45c-3.97,1.15-6.97,2.01-9.96,2.87c1.95,1.92,4.13,2.48,6.06,3.52c1.61,0.87,2.91,2.3,4.35,3.48
	c-1.47,1.13-2.79,2.78-4.45,3.29c-2.89,0.88-5.99,1.04-10.12,1.68c3,3.15,5.19,5.44,7.37,7.73c-0.1,0.49-0.2,0.98-0.3,1.48
	c-3.31,0-6.63-0.14-9.93,0.05c-1.84,0.11-3.66,0.76-5.48,1.17c1.19,1.31,2.39,2.61,3.56,3.94c1.58,1.79,3.14,3.61,4.7,5.42
	c-1.87,1.45-3.72,2.94-5.62,4.34c-3.51,2.59-8.29,4.42-10.29,7.87c-2.78,4.8-5.67,5.62-10.74,3.8c-1.29-10.22-2.62-20.72-3.95-31.23
	c-0.4-0.04-0.8-0.08-1.2-0.11c-1.96,7.23-3.91,14.47-6.02,22.27c-1.15-1.7-1.83-2.71-2.86-4.23c-0.66,2.68-1.16,4.7-1.8,7.29
	c-2.09-0.9-3.77-1.62-5.64-2.42c1.11-2.23,1.92-3.85,2.25-4.53c-2.98-4.25-5.57-7.94-8.15-11.64c-0.53-0.14-1.07-0.28-1.6-0.42
	c0.09,6.43-2.28,10.64-8.5,11.42c-1.07-7.33-2.14-14.67-3.21-22.01c-0.46,0.03-0.91,0.07-1.37,0.1
	c-2.94,10.14-5.87,20.28-8.81,30.42c-0.49,0.02-0.98,0.03-1.47,0.05c-1.91-5.62-3.77-11.26-5.75-16.85
	c-0.47-1.32-1.35-3.55-2.03-3.55c-3.68,0.02-2.7-2.59-3.02-4.54c-1.11-6.74-2.24-13.48-3.36-20.23c-0.47,0.03-0.95,0.06-1.42,0.09
	c-1.65,3.28-3.31,6.55-4.96,9.83c-0.41-0.09-0.81-0.19-1.22-0.28c0-15.14,0-30.27,0-45.41c-0.55-0.06-1.09-0.12-1.64-0.18
	c-7.96,13.24-4.53,28.95-8.81,43.19c-0.52-4.23-1.05-8.45-1.57-12.68c-2.37,9.96,1.41,21.17-6.46,29.48
	c-0.62-0.09-1.24-0.19-1.86-0.28c-0.47-5.2-0.95-10.41-1.43-15.61c-0.43,0.03-0.86,0.07-1.29,0.1c-0.18,3.64-0.33,7.28-0.54,10.92
	c-0.38,6.8-0.74,13.59-1.19,20.39c-0.15,2.25-0.67,4.84-3.68,3.78c-1.22-0.43-2.3-2.73-2.5-4.29c-0.86-6.7-1.36-13.44-2-20.16
	c-0.21,0.02-0.43,0.04-0.64,0.06c-1.23,7.46-2.45,14.92-3.68,22.38c-0.49,0.24-0.99,0.48-1.48,0.72c-2.3-2.43-4.59-4.86-7.33-7.76
	c-0.63,2.42-1,3.83-1.54,5.89c-6.17-1.56-12.13-2.94-18-4.66c-1.14-0.33-2.5-1.9-2.7-3.07c-0.8-4.71-1.13-9.51-1.74-14.26
	c-0.46-3.58-1.07-7.13-1.61-10.7c-0.48,0.03-0.96,0.07-1.44,0.1c-1.77,7.28-3.55,14.56-5.59,22.93c-3.01-4.26-5.16-7.31-7.39-10.48
	c-1.43,1.83-2.49,3.2-4.33,5.56c-1.07-3.9-2.23-6.66-2.53-9.52c-1.13-10.59-1.94-21.22-2.98-31.83c-0.22-2.28-0.93-4.52-1.41-6.78
	c-0.64-0.08-1.29-0.16-1.93-0.24c-3.36,7.16-6.71,14.31-10.4,22.18c-1.75-5.01-3.19-9.14-4.97-14.23c-1.2,2.77-1.73,4.73-2.82,6.29
	c-1.28,1.84-2.76,4.07-4.67,4.86c-4.49,1.84-9.3,2.93-14.43,4.45c-0.81-1.95-1.98-4.79-3.28-7.93c-2.95,3.7-5.42,7.19-8.29,10.3
	c-2.95,3.19-5.4,2.91-6.61-1.14c-1.84-6.16-2.86-12.57-4.07-18.9c-0.66-3.47-1.01-7-1.5-10.5c-0.41,0.02-0.81,0.05-1.22,0.07
	c-2.52,9.09-5.05,18.18-7.57,27.27c-0.8,0.02-1.59,0.04-2.39,0.06c-1.76-4.07-3.53-8.13-5.66-13.06c-3.16,2.27-5.89,4.23-8.34,5.99
	c-8.86-1.18-11.61-6.75-11.49-14.99c0.05-3.34-1.59-6.71-2.47-10.07c-0.42,0.1-0.84,0.19-1.26,0.29c-1.24,5.2-2.48,10.4-3.9,16.33
	c-3.7-2.37-6.43-4.19-9.23-5.91c-29.99-18.38-62.1-24.49-96.79-17.54c-23.59,4.73-45.46,13.92-67.06,24.04
	c-28.17,13.2-56.04,27.09-84.59,39.43c-25.16,10.87-51.8,16.1-79.4,14.83c-5.11-0.24-10.19-1.34-16.2-2.18
	c-0.1,0.04-2.64,1.22-2.74,1.05c-1.21-2.18-2.06-4.55-3.13-7.18c-0.57,2.17-1.1,4.21-1.64,6.25c-0.55,0.03-1.1,0.06-1.66,0.08
	c-0.86-4.29-1.72-8.58-2.59-12.89c-0.52,1.02-0.98,1.91-1.66,3.23c-1.8-6.4-0.1-13.1-4.3-18.12c-0.51,0.06-1.02,0.13-1.53,0.19
	c0,6.36,0,12.72,0,19.82c-1.89-1.37-2.96-2.14-3.66-2.65c-3.14,6.93-6.16,13.59-9.72,21.45c-2.32-5.83-4.06-10.21-5.81-14.6
	c-0.37,0.01-0.74,0.01-1.1,0.02c-0.72,3.12-1.45,6.23-2.17,9.35c-0.42-0.28-0.84-0.57-1.26-0.85c-1.48,1.84-3.14,3.57-4.36,5.57
	c-0.65,1.06-0.2,2.78-0.84,3.84c-0.73,1.2-2.15,2.78-3.22,2.75c-1.14-0.04-3.26-1.87-3.18-2.75c0.59-6.26-5.44-9.75-6.12-15.38
	c-0.02-0.18-0.53-0.3-1.36-0.74c-0.57,3.9-1.05,7.61-1.69,11.3c-0.22,1.25-0.63,3.34-1.31,3.5c-7.34,1.72-5.6,7.5-5.93,12.45
	c-0.17,2.57-0.75,5.12-1.21,8.07c-2.36-1.56-4.03-3.45-4.96-3.14c-4.64,1.55-3.97-1.99-4.53-4.29c-0.57-2.33-0.94-4.7-1.4-7.06
	c-0.42,0.08-0.84,0.16-1.26,0.23c-0.72,3.43-1.45,6.86-2.24,10.6c-2.12-0.99-3.54-1.66-5.32-2.49c-1.58,6.34-2.98,12.32-4.59,18.25
	c-0.46,1.7-1.05,3.84-2.32,4.77c-6.52,4.79-13.27,9.25-20.7,14.34c-1.12-6.05-2.06-11.14-3-16.23c-2.7,6.4-4.85,12.79-6.49,19.3
	c-1.06,4.19-3.63,5.72-7.52,5.78c-4.09,0.07-3.63-3.59-4.67-5.96c-1.16-2.63-2.16-5.33-3.23-8c-0.52,0.15-1.04,0.29-1.56,0.44
	c-0.54,4.26-1.22,8.51-1.56,12.79c-0.32,3.99-3.47,4.32-6.09,4.44c-0.96,0.05-2.54-2.49-2.99-4.09c-1.12-3.9-1.75-7.95-2.58-11.94
	c-0.67,0.04-1.34,0.07-2.02,0.11c0,4.7,0.27,9.43-0.15,14.09c-0.15,1.65-1.78,4.29-3.09,4.53c-15.52,2.8-30.8,2.54-45.43-4.44
	c-19.21-9.16-33.32-24.3-46.15-40.5c-16.64-21.01-32.13-42.92-48.44-64.2c-9.34-12.18-19.66-23.55-32.52-32.22
	c-11.4-7.69-20.69-7.35-31.67,0.92c-3.06,2.31-6.2,4.54-9.07,7.06c-9.49,8.34-20.27,11.59-32.84,9.36
	c-10.88-1.93-19.95,1.21-26.82,10.37c-5.59,7.46-13.07,12.51-21.37,16.84c-6.38,3.33-12.29,7.93-17.62,12.82
	c-6.61,6.06-12.33,13.07-18.6,19.51c-2.09,2.14-4.67,3.81-7.02,5.69c-0.5-0.26-1-0.51-1.5-0.77c0-8.45,0-16.89,0-25.34
	c-0.67-0.12-1.35-0.24-2.02-0.36c-1.11,3.32-2.56,6.57-3.22,9.98c-0.75,3.91-0.78,7.95-1.15,11.93
	c-0.91,9.61-2.58,11.14-12.28,11.28c-0.83,0.01-1.67-0.07-2.49-0.21c-8.19-1.39-16.53-2.23-24.54-4.34
	c-16.82-4.44-31.62-1.28-44.79,9.99c-1.09,0.94-2.31,1.73-4.27,3.19c-0.27-2.4-0.57-3.95-0.59-5.5c-0.09-5.5,0.22-11.02-0.29-16.48
	c-0.17-1.83-2.3-3.49-3.53-5.22c-1.01,1.53-2.55,2.94-2.94,4.61c-1.09,4.63-1.7,9.37-2.45,13.78c-5.28,1.28-7.16-0.64-6.75-5.24
	c0.1-1.15-0.01-2.35-0.25-3.48c-0.55-2.56-0.71-5.79-4.42-5.54c-3.76,0.26-4.05,2.95-3.85,6.18c0.39,6.41-1.34,8.54-7.51,10.49
	c-1.07,0.34-2.49,0.7-2.98,1.51c-1.71,2.83-3.09,5.87-5.23,10.08c-1.62-5.18-2.71-8.68-3.8-12.18c-2.94,3.69-4.26,7.68-6.55,11
	c-1.5,2.17-4.45,4.65-6.67,4.57c-1.76-0.06-4.25-3.56-4.88-5.94c-0.86-3.27-0.37-6.92-0.25-10.4c0.26-7.76,0.25-15.46-3.12-24.05
	c-0.73,2.71-1.19,4.22-1.53,5.74c-1.68,7.47-3.23,14.98-5.06,22.42c-0.43,1.74-1.77,3.25-2.7,4.87c-1.17-1.65-2.64-3.17-3.43-4.99
	c-1.21-2.81-1.94-5.82-3.22-9.82c-3.4,2.78-6,4.91-8.39,6.86c-8.56-1.85-12.17-6.69-11.29-15.7c0.42-4.26-1.81-8.78-2.84-13.19
	c-0.44,0.07-0.87,0.14-1.31,0.21c-1.22,6.17-2.44,12.34-3.75,18.95c-3.35-1.76-5.71-2.98-8.05-4.23
	c-16.62-8.85-33.46-17.1-51.44-23.03c-8.41-2.77-18.49-0.69-25.22-8.45c-2.2-2.53-4.63-4.87-6.66-7.53
	c-1.71-2.24-2.99-4.82-4.45-7.25c-0.58,0.09-1.16,0.17-1.74,0.26c-0.74,2.22-1.82,4.4-2.16,6.68c-1.01,6.87-5.81,12.28-12.34,13.57
	c-14.52,2.86-28.02,8.37-40.86,15.65c-6.33,3.59-11.11,1.61-13.12-3.89c-3.32-0.8-5.85-1.4-8.78-2.11c4.33-6.9,4.06-9.49-0.35-11.08
	c-8.04-2.89-8.1-3.08-3.34-10.45c0.54-0.84,1.14-1.64,1.68-2.48c2.07-3.21,0.08-4.23-2.63-4.51c-1.27-0.13-2.65,0.7-3.92,0.55
	c-1.97-0.24-3.89-0.94-5.83-1.44c0.59-2.07,0.76-4.4,1.86-6.14c1.69-2.69,4.02-4.97,7.29-8.86c-8.35-0.13-12.16-4.29-14.66-9.87
	c-1.08-2.41-1.36-5.34-2.9-7.36c-1.43-1.88-4.04-2.85-6.13-4.22c-1.16,1.85-2.78,3.56-3.36,5.58c-0.81,2.85-0.5,6.02-1.34,8.85
	c-0.55,1.86-2.27,3.39-3.51,5.03c-0.94,1.24-2.93,2.67-2.7,3.58c0.37,1.49,2.02,2.83,3.41,3.85c0.94,0.68,2.37,0.7,4.48,1.25
	c-3.34,2.64-6.05,4.78-8.27,6.53c0.19,4.16,9.07,3.21,4.06,9.3c-0.93-0.74-1.66-1.32-2.21-1.76c-1.38,1.31-2.48,2.75-3.91,3.65
	c-3.95,2.47-4.08,3.18-0.12,5.35c2.49,1.36,3.34,3.26,0.97,4.9c-4.31,2.96-10.6-0.22-11.11-5.27c-0.12-1.16-0.15-2.37-0.52-3.45
	c-0.84-2.46-1.33-5.42-3.04-7.06c-0.96-0.93-4.05,0.35-6.12,0.63c-1.11-7.26-2.23-14.54-3.34-21.83c-0.48-0.02-0.96-0.04-1.45-0.07
	c-3.01,10.18-6.03,20.37-9.04,30.55c-0.49,0-0.99,0-1.48,0c-1.73-5.14-3.42-10.29-5.23-15.4c-0.59-1.66-1.33-4.44-2.3-4.57
	c-3.93-0.56-2.9-3.37-3.27-5.63c-1.09-6.6-2.2-13.21-3.3-19.81c-0.49,0.02-0.97,0.04-1.46,0.06c-1.64,3.34-3.27,6.68-4.91,10.01
	c-0.43-0.06-0.87-0.11-1.3-0.17c0-14.92,0-29.85,0-44.77c-0.52-0.03-1.03-0.06-1.55-0.09c-8.53,12.62-4.48,28.02-9.12,41.68
	c-0.3-3.4-0.6-6.79-0.9-10.19c-1.79,7-2.5,13.92-3.52,20.8c-0.19,1.28-1.58,2.38-2.41,3.56c-1.14-1.16-2.93-2.15-3.27-3.51
	c-0.68-2.72-0.56-5.64-0.77-8.47c-1.31,1.91-1.31,3.88-1.8,5.73c-0.5,1.87-1.2,4.9-2.33,5.16c-2.92,0.67-6.59,1.38-7.56-1.65
	c-2.65,0.35-4.81,0.64-6.98,0.93c0,135.32,0,270.63,0,405.97c640,0,1280,0,1920,0c0-180.69,0-361.33,0-541.98
	C1909.18,402.2,1902.99,411.7,1896.91,421.3z"/>
<g>
	<path class="st2" d="M1920,762.28c-639.98,11.2-1280.23,6.83-1920-13.12V1080h1920V762.28z"/>
</g>
<g>
	<path class="st3" d="M0,908.32c9.79,6.66,34.93,21.71,45.35,27.33c9.18,4.95,19.67,10.38,27.32,13.7c1.59,0.69,3.23,1.21,4.88,1.71
		c1.52,0.47,8.75,4.03,40.48,23c7.38,4.41,17.01,3.35,23.06-2.97c0.92-0.96,1.74-2.02,2.39-3.19c0,0,14.05-32.88,14.59-42.94
		c0,0,3.11-12.7,8.76-19.54c0,0,4.85-10.62-8.78-19.36c0,0-62.98-28.96-82.9-40.11c0,0-65.87-34.92-75.16-39.75"/>
	<path class="st3" d="M648.21,764.04l40.65,21.82l148.53,83.15c0,0,51.93,29.07,79.96,48.16c9.79,6.66,19.88,12.85,30.29,18.47
		c9.18,4.95,19.67,10.38,27.32,13.7c1.59,0.69,3.23,1.21,4.88,1.71c1.52,0.47,8.75,4.03,40.48,23c7.38,4.41,17.01,3.35,23.06-2.97
		c0.92-0.96,1.74-2.02,2.39-3.19c0,0,14.05-32.88,14.59-42.94c0,0,3.11-12.7,8.76-19.54c0,0,4.85-10.62-8.78-19.36
		c0,0-62.98-28.96-82.9-40.11c0,0-85.19-45.1-94.48-49.93c0,0-26.67-16.3-48.63-29.67"/>
	<path class="st3" d="M1300.15,768.26l32.79,17.6l148.53,83.15c0,0,51.93,29.07,79.96,48.16c9.79,6.66,19.88,12.85,30.29,18.47
		c9.18,4.95,19.66,10.38,27.32,13.7c1.59,0.69,3.23,1.21,4.88,1.71c1.52,0.47,8.75,4.03,40.48,23c7.38,4.41,17.01,3.35,23.06-2.97
		c0.92-0.96,1.74-2.02,2.39-3.19c0,0,14.05-32.88,14.59-42.94c0,0,3.11-12.7,8.76-19.54c0,0,4.85-10.62-8.78-19.36
		c0,0-62.98-28.96-82.9-40.11c0,0-85.19-45.1-94.48-49.93c0,0-24.73-15.12-46.69-28.49"/>
</g>
<g>
	<path class="st4" d="M1920.1,733.69c-14.21-6.62-33.49-10.69-54.73-10.69c-13.53,0-26.26,1.65-37.4,4.56
		c-2.53-20.13-36.92-36.08-78.98-36.08c-29.11,0-54.54,7.64-68.29,19.01c-13.74-11.37-39.18-19.01-68.29-19.01
		c-37.23,0-68.45,12.49-76.88,29.32c-9.59,2.28-18.09,5.49-25.02,9.36c-14.11-10.54-38.55-17.51-66.35-17.51
		c-13.53,0-26.26,1.65-37.4,4.56c-2.52-20.13-36.92-36.08-78.98-36.08c-29.11,0-54.54,7.64-68.29,19.01
		c-13.74-11.37-39.18-19.01-68.29-19.01c-37.23,0-68.45,12.49-76.88,29.32c-26.28,6.25-44.37,19.37-44.37,34.55v30.2
		c0,11.75,10.53,21.28,23.51,21.28h401.03c4.11,6.2,11.6,10.34,20.17,10.34h405.42V733.69z"/>
	<path class="st4" d="M999.09,705.69c-8.81-19.66-41.41-34.25-80.29-34.25c-30.4,0-56.96,8.92-71.31,22.21
		c-14.35-13.29-40.91-22.21-71.31-22.21c-43.93,0-79.84,18.63-82.48,42.14c-11.63-3.4-24.93-5.32-39.05-5.32
		c-22.62,0-43.1,4.95-58.02,12.95c-8.12-7.96-21.29-14.44-37.41-18.37c-8.81-18.02-41.41-31.4-80.29-31.4
		c-30.4,0-56.96,8.18-71.31,20.36c-14.35-12.18-40.91-20.36-71.31-20.36c-43.93,0-79.84,17.08-82.48,38.63
		c-11.63-3.11-24.93-4.88-39.05-4.88c-4.51,0-8.93,0.19-13.25,0.54c-5.03-1.94-10.56-3.62-16.49-4.97
		c-8.81-16.83-41.41-29.32-80.29-29.32c-30.4,0-56.96,7.64-71.31,19.01c-7.9-6.26-19.51-11.39-33.42-14.74v111.07h137.84
		c4.5,4.99,11.27,8.17,18.83,8.17h419.34c4.39,6.77,11.94,11.24,20.53,11.24h424.32c13.56,0,24.55-11.13,24.55-24.86v-35.28
		C1045.43,728.32,1026.53,712.99,999.09,705.69z"/>
</g>
<path d="M71.64,0L79,99.95c4.13,56.1,6.2,112.34,6.2,168.59v73.81v269.73c0,0,0,94.31-4.61,147.83
	c-1.61,18.69-2.34,37.43-2.05,56.18c0.25,16.53,0.85,35.23,2.17,48.38c0.27,2.72,0.82,5.4,1.38,8.08
	c0.52,2.46,1.17,15.22-0.46,73.77c-0.38,13.61,8.37,26.11,21.54,29.58c2,0.53,4.06,0.83,6.14,0.83c0,0,55.25-6.03,69.32-13.06
	c0,0,19.59-5.53,33.15-3.01c0,0,18.08-1.51,19.59-27.12c0,0-8.54-109.5-8.54-145.66c0,0-3.52-152.7-4.02-169.27
	c0,0,4.52-120.55,5.02-140.14c0,0,0.5-122.06,1-142.65L226.34,0H71.64z"/>
<path d="M996.91,0l7.36,99.95c4.13,56.1,6.2,112.34,6.2,168.59v73.81v269.73c0,0,0,94.31-4.61,147.83
	c-1.61,18.69-2.34,37.43-2.05,56.18c0.25,16.53,0.85,35.23,2.17,48.38c0.27,2.72,0.82,5.4,1.38,8.08
	c0.52,2.46,1.17,15.22-0.46,73.77c-0.38,13.61,8.37,26.11,21.54,29.58c2,0.53,4.06,0.83,6.14,0.83c0,0,55.25-6.03,69.32-13.06
	c0,0,19.59-5.53,33.15-3.01c0,0,18.08-1.51,19.59-27.12c0,0-8.54-109.5-8.54-145.66c0,0-3.52-152.7-4.02-169.27
	c0,0,4.52-120.55,5.02-140.14c0,0,0.5-122.06,1-142.65L1151.62,0H996.91z"/>
<g>
	<g>
		<path class="st5" d="M388.45,776.59c-0.14-0.45-0.8-2.46-2.33-4.66c-1.05-1.51-2.84-4.11-5.82-4.66c-0.69-0.13-1.47-0.31-2.33,0
			c-1.33,0.48-2.22,2.04-2.91,5.82c-1,5.44-0.58,8.73-0.58,8.73c1.04,8.19,0.83,19.38,0.58,32.61c-0.11,5.79-0.43,10.49,0.58,17.47
			c0.08,0.55,0.66,4.44,2.33,9.32c2.36,6.9,4.54,8.93,5.82,9.9c1.1,0.83,3.2,2.39,5.24,1.75c2.52-0.8,3.32-4.45,3.49-5.24
			c0.19-0.86,0.05-1.07,0-4.08c-0.03-1.55,0-3.11,0-4.66c0-3.69,0-7.38,0-11.06c0-10.09,0-15.14,0-15.14
			c-0.3-11.06-0.79-9.32-1.16-20.38C391.29,790.33,390.5,783.06,388.45,776.59z"/>
		<path class="st6" d="M388.02,854.52c-2.2,0-4.12-1.44-5.13-2.2c-1.7-1.27-3.96-3.63-6.34-10.61c-1.67-4.89-2.29-8.84-2.39-9.59
			c-0.88-6.08-0.77-10.52-0.65-15.22c0.02-0.81,0.04-1.64,0.06-2.49c0.25-13.04,0.46-24.3-0.57-32.39c-0.02-0.15-0.43-3.64,0.6-9.2
			c0.57-3.09,1.43-6.08,3.88-6.96c1.18-0.43,2.21-0.23,2.96-0.09l0.15,0.03c3.57,0.65,5.64,3.63,6.75,5.23
			c1.51,2.17,2.25,4.13,2.56,5.11c2.04,6.43,2.9,13.76,2.98,16.12c0.18,5.33,0.39,7.66,0.59,9.91c0.22,2.44,0.42,4.75,0.58,10.48
			l0,26.24l-0.01,1.56c-0.01,1.02-0.01,2.05,0.01,3.07c0.02,1.07,0.05,1.78,0.07,2.29c0.04,0.96,0.06,1.39-0.1,2.13
			c-0.75,3.46-2.31,5.65-4.51,6.35C388.99,854.45,388.5,854.52,388.02,854.52z M378.97,768.6c-0.17,0-0.33,0.02-0.49,0.08
			c-0.78,0.28-1.42,1.82-1.95,4.68c-0.94,5.11-0.57,8.25-0.57,8.28c1.05,8.29,0.84,19.66,0.59,32.81c-0.02,0.86-0.04,1.69-0.06,2.51
			c-0.12,4.77-0.22,8.89,0.62,14.72c0.1,0.7,0.68,4.41,2.26,9.05c2.14,6.28,4.05,8.25,5.3,9.18c0.9,0.68,2.58,1.93,3.89,1.52
			c1.08-0.34,1.98-1.85,2.48-4.13c0.08-0.35,0.07-0.47,0.04-1.37c-0.02-0.53-0.05-1.26-0.07-2.36c-0.02-1.05-0.01-2.09-0.01-3.14
			l0.01-12.61v-15.14c-0.15-5.6-0.35-7.86-0.57-10.26c-0.2-2.29-0.42-4.66-0.6-10.07c-0.06-1.9-0.86-9.06-2.84-15.32l0,0
			c-0.21-0.66-0.83-2.38-2.13-4.25c-1.02-1.46-2.51-3.61-4.86-4.04l-0.17-0.03C379.51,768.65,379.22,768.6,378.97,768.6z"/>
	</g>
	<g>
		<path class="st5" d="M366.88,763.4c6.86,1.21,11.97,7.02,12.32,13.98c0.95,19.02,1.14,34.39,1.1,45.59
			c-0.06,18.31-0.65,39.42,0.58,55.9c0.32,4.26,0.81,16.33-2.91,32.02c-0.08,0.33-0.16,1.82-0.58,2.91
			c-1.35,3.52-3.86,5.36-4.66,5.82c-3.68,2.13-9.85,3.18-13.39,0c-1.85-1.66-2.57-4.09-2.91-5.24c-0.38-1.28-0.5-2.39-0.58-5.24
			c-0.11-3.82-0.02-6.72,0-7.57c0.05-1.96,0.16-6.12,0-11.06c-0.21-6.54-0.04-5.31,0-9.32c0.03-3.73-0.2-5.11-1.16-6.4
			c-0.58-0.78-1.29-0.98-7.57-1.75c-5.17-0.63-6.08-0.69-6.99,0c-0.67,0.51-1.2,1.32-1.75,5.24c-0.52,3.69-0.56,6.65-0.58,11.06
			c0,1.03-0.01,3.4,0,7.57c0.01,4.51,0.03,5.67,0,8.15c-0.07,5.4-0.25,7.05-0.58,8.73c-0.52,2.65-0.78,3.97-1.75,5.24
			c-2.49,3.28-7.07,3.45-8.15,3.49c-4.39,0.17-9.41-1.91-11.64-5.82c-0.87-1.52-1.16-3.53-1.75-7.57c-0.43-2.94-0.53-5.2-0.58-6.4
			c-0.38-8.95-0.57-13.42-0.58-13.97c-0.18-11.46-0.48-11.29-0.58-19.8c-0.12-9.83,0.22-17.18,0.58-25.62
			c0.22-5.23,0.5-11.46,1.16-19.8c0.33-4.08,0.8-9.87,1.75-17.47c0.88-7.03,1.53-12.22,2.91-18.63c1.99-9.23,3.19-14.78,5.24-18.05
			C330.41,758.89,352.77,760.9,366.88,763.4z"/>
		<path class="st6" d="M326.81,924.03c-5.14,0-10.2-2.66-12.44-6.59c-1.01-1.76-1.32-3.88-1.93-8.1c-0.45-3.08-0.55-5.43-0.6-6.56
			c-0.41-9.52-0.57-13.46-0.58-14.01c-0.09-5.96-0.22-8.79-0.33-11.28c-0.1-2.28-0.2-4.43-0.25-8.52
			c-0.11-9.46,0.19-16.5,0.54-24.66l0.04-1.04c0.21-4.78,0.48-11.32,1.17-19.85c0.31-3.89,0.78-9.77,1.75-17.53
			c0.89-7.13,1.53-12.28,2.93-18.76c2.03-9.38,3.25-15.04,5.44-18.53c6.79-10.83,27.99-9.61,44.59-6.68l0,0
			c7.59,1.34,13.17,7.67,13.55,15.38c0.78,15.61,1.15,30.97,1.1,45.67c-0.01,4.02-0.05,8.18-0.09,12.39
			c-0.14,15.04-0.29,30.59,0.67,43.39c0.43,5.69,0.61,17.47-2.95,32.48c-0.01,0.05-0.02,0.17-0.04,0.32
			c-0.08,0.68-0.23,1.81-0.6,2.79c-1.69,4.39-4.94,6.37-5.31,6.58c-4.4,2.55-11.21,3.35-15.14-0.18c-2.16-1.94-2.99-4.74-3.35-5.93
			c-0.42-1.42-0.56-2.63-0.64-5.62c-0.1-3.76-0.03-6.64,0-7.58c0.05-1.86,0.16-6.06,0-11.04c-0.14-4.44-0.11-5.34-0.06-6.71
			c0.02-0.64,0.05-1.38,0.06-2.67c0.03-3.63-0.2-4.6-0.87-5.49c-0.25-0.33-2.31-0.63-6.55-1.15c-4.32-0.53-5.47-0.62-5.9-0.29
			c-0.19,0.15-0.64,0.49-1.17,4.25c-0.5,3.6-0.55,6.5-0.57,10.86c0,1.03-0.01,3.4,0,7.56l0.01,3.01c0.01,2.23,0.01,3.34-0.01,5.17
			c-0.07,5.37-0.25,7.19-0.61,9.01c-0.55,2.78-0.85,4.31-2.02,5.86c-1.33,1.75-4.02,3.89-9.29,4.09
			C327.18,924.03,327,924.03,326.81,924.03z M346.57,762.89c-9.24,0-17.96,1.69-21.48,7.3c-1.91,3.04-3.09,8.51-5.04,17.56
			c-1.37,6.36-2.01,11.45-2.89,18.51c-0.96,7.7-1.43,13.54-1.74,17.4c-0.68,8.48-0.95,14.72-1.16,19.74l-0.04,1.04
			c-0.35,8.11-0.65,15.11-0.54,24.49c0.05,4.04,0.14,6.07,0.25,8.42c0.11,2.52,0.24,5.37,0.34,11.37c0.01,0.54,0.22,5.4,0.58,13.93
			c0.05,1.08,0.14,3.33,0.57,6.25c0.56,3.84,0.84,5.77,1.57,7.04c1.8,3.15,6.03,5.24,10.29,5.07c4.1-0.16,6.07-1.66,7.01-2.9
			c0.75-0.99,0.98-2.13,1.47-4.62c0.32-1.64,0.49-3.32,0.55-8.46c0.02-1.81,0.02-2.91,0.01-5.12l-0.01-3.01
			c-0.01-4.17,0-6.55,0-7.58c0.02-4.48,0.07-7.48,0.6-11.26c0.54-3.83,1.08-5.28,2.33-6.23c1.46-1.1,2.86-0.93,8.08-0.29
			c6.34,0.78,7.56,0.97,8.59,2.34c1.3,1.75,1.5,3.59,1.46,7.31c-0.01,1.33-0.04,2.09-0.06,2.75c-0.05,1.3-0.08,2.16,0.06,6.51
			c0.16,5.07,0.05,9.33,0,11.15c-0.03,0.99-0.1,3.81,0,7.49c0.08,2.72,0.18,3.71,0.52,4.85c0.31,1.03,0.94,3.18,2.47,4.55
			c3.06,2.75,8.65,1.55,11.64-0.18c0.11-0.06,2.67-1.57,4.01-5.06c0.24-0.63,0.36-1.54,0.42-2.08c0.04-0.3,0.07-0.52,0.1-0.64
			c3.46-14.61,3.29-26.04,2.87-31.56c-0.97-12.93-0.82-28.54-0.68-43.64c0.04-4.21,0.08-8.36,0.09-12.37
			c0.05-14.65-0.32-29.96-1.1-45.51c-0.32-6.31-4.87-11.48-11.08-12.57l0,0C361.05,763.89,353.66,762.89,346.57,762.89z"/>
	</g>
	<g>
		<path class="st5" d="M326.15,772.31c2.33,4.08,1.03,8.9,0.58,15.14c-0.58,8.15-0.26,5.63-1.75,23.29
			c-0.78,9.24-1.05,7.96-1.16,12.23c-0.29,10.65-0.43,15.97,0.58,20.96c0.12,0.6,0.62,2.97,0,5.82c-0.3,1.38-0.73,3.23-2.33,4.66
			c-1.63,1.45-3.53,1.64-4.66,1.75c-0.83,0.08-3.42,0.3-5.82-1.16c-0.86-0.52-2.41-1.7-4.08-5.82c-1.53-3.79-1.96-7.1-2.33-11.64
			c-0.53-6.53-0.58-11.06-0.58-11.06c-0.13-10.73-0.32-16.09,0-22.13c0.58-11.06,0.95-10.54,1.16-18.05
			c0.01-0.22,0.07-4.39,0.58-7.57c0.62-3.9,1.38-5.64,1.75-6.4c0.84-1.77,1.46-3.07,2.91-4.08c1.97-1.36,4.15-1.25,5.82-1.16
			c1.02,0.05,3.38,0.2,5.82,1.75C322.66,768.81,324.87,770.07,326.15,772.31z"/>
		<path class="st6" d="M316.22,857.71c-2.02,0-3.84-0.48-5.41-1.44c-1.16-0.71-2.92-2.16-4.68-6.54c-1.68-4.17-2.08-7.79-2.43-12.09
			c-0.53-6.51-0.59-11.12-0.59-11.17c-0.03-2.33-0.06-4.41-0.08-6.29c-0.1-6.72-0.16-11.16,0.09-15.93
			c0.28-5.37,0.52-8.03,0.7-10.18c0.2-2.32,0.35-3.99,0.46-7.83c0.03-1.46,0.15-4.98,0.6-7.76c0.69-4.33,1.58-6.2,1.87-6.81
			c0.88-1.84,1.63-3.44,3.41-4.67c2.39-1.65,5.01-1.51,6.75-1.43c1.02,0.05,3.72,0.19,6.55,1.98c0.04,0.02,2.53,1.45,4,4.02l0,0
			c2.05,3.6,1.63,7.54,1.14,12.1c-0.13,1.24-0.27,2.53-0.37,3.88c-0.17,2.45-0.27,3.93-0.35,5.29c-0.2,3.16-0.36,5.66-1.39,18.02
			c-0.39,4.63-0.66,6.67-0.84,8.03c-0.18,1.36-0.27,2.05-0.32,4.12c-0.28,10.52-0.42,15.8,0.55,20.62c0.45,2.21,0.45,4.36,0,6.44
			c-0.3,1.38-0.8,3.68-2.8,5.46c-1.99,1.77-4.28,2-5.5,2.12C317.11,857.69,316.66,857.71,316.22,857.71z M315.45,768.52
			c-1.2,0-2.45,0.16-3.58,0.94c-1.12,0.77-1.61,1.79-2.41,3.49c-0.25,0.52-1,2.09-1.62,6c-0.42,2.61-0.53,5.96-0.56,7.29
			c-0.11,4.02-0.27,5.82-0.47,8.1c-0.19,2.12-0.42,4.76-0.7,10.08c-0.25,4.67-0.18,9.07-0.08,15.73c0.03,1.89,0.06,3.97,0.09,6.3
			c0,0.04,0.06,4.56,0.58,10.96c0.38,4.73,0.83,7.76,2.22,11.2c1.6,3.97,3,4.82,3.47,5.1c1.34,0.82,2.99,1.13,4.89,0.95
			c1.02-0.1,2.55-0.25,3.81-1.37c1.27-1.13,1.6-2.64,1.86-3.86c0.36-1.67,0.36-3.41,0-5.18c-1.05-5.19-0.91-10.58-0.62-21.33
			c0.06-2.22,0.16-3.01,0.35-4.43c0.17-1.32,0.44-3.32,0.82-7.89c1.04-12.33,1.19-14.81,1.39-17.96c0.09-1.37,0.18-2.86,0.36-5.31
			c0.1-1.41,0.24-2.72,0.38-3.99c0.45-4.21,0.81-7.54-0.77-10.3l0,0c-1.04-1.83-2.91-2.92-2.93-2.93c-2.22-1.4-4.36-1.51-5.16-1.55
			C316.33,768.54,315.89,768.52,315.45,768.52z"/>
	</g>
	<g>
		<path class="st5" d="M422.26,630.56c4.52,5.77,6.8,12.98,8.69,20.06c1.31,4.91,3.37,10.78,4.08,17.47
			c3.31,31.37,0.56,53.02-0.58,59.39c-1.96,10.89-4.97,16.07-8.15,22.13c-7.38,14.06-26.86,15.54-37.26,17.47
			c-6.21,1.15-10.86,1.37-18.63,1.75c-11.1,0.53-20.19,0.06-32.02-0.58c-8.81-0.48-13.22-0.72-16.88-1.16
			c-14.19-1.73-23.65-2.88-33.77-8.73c-5.58-3.23-15.34-10.19-21.54-22.13c-3.18-6.12-4.45-12.42-6.99-25.04
			c-1.5-7.47-2.59-12.87-2.91-20.38c-0.09-2.15-0.46-12.47,2.33-26.2c2.17-10.66,4-19.69,10.48-29.69
			c6.84-10.56,14.97-16.18,16.88-17.47c7.9-5.3,15.04-7.21,20.96-8.73c8.48-2.19,17.03-2.46,33.77-2.91c9.24-0.25,13.87-0.38,19.8,0
			c7.36,0.47,16.96,1.13,28.53,4.66c9.12,2.78,17.34,5.28,25.62,12.23C417.67,625.2,420.18,627.89,422.26,630.56z"/>
		<path class="st6" d="M360.74,770.54c-7.5,0-14.59-0.39-22.44-0.81c-8.83-0.48-13.27-0.72-16.99-1.17
			c-14.43-1.76-23.96-2.92-34.34-8.92c-5.51-3.19-15.71-10.38-22.12-22.73c-3.28-6.31-4.56-12.7-7.13-25.43
			c-1.52-7.55-2.62-12.99-2.94-20.61c-0.16-3.71-0.25-13.74,2.36-26.56c2.18-10.72,4.06-19.97,10.69-30.21
			c6.51-10.04,14.27-15.86,17.31-17.9c8.28-5.55,15.88-7.51,21.42-8.94c8.82-2.27,17.8-2.52,34.1-2.96c9.28-0.25,13.93-0.38,19.93,0
			c6.73,0.43,16.9,1.07,28.87,4.72c9.07,2.76,17.63,5.37,26.14,12.51c2.86,2.4,5.5,5.13,7.83,8.11l0,0
			c4.83,6.17,7.16,13.87,8.96,20.6c0.3,1.11,0.63,2.27,0.98,3.47c1.21,4.19,2.58,8.93,3.14,14.22c3.58,33.92,0.13,55.78-0.6,59.81
			c-1.87,10.39-4.69,15.72-7.67,21.36l-0.63,1.2c-6.86,13.07-23.4,15.78-34.34,17.57c-1.43,0.23-2.76,0.45-3.98,0.68
			c-6.3,1.17-11.01,1.4-18.81,1.77C367.11,770.47,363.89,770.54,360.74,770.54z M352.72,607.05c-3.25,0-6.92,0.1-11.97,0.24
			c-17.3,0.47-25.29,0.76-33.44,2.86c-5.63,1.45-12.65,3.26-20.5,8.53c-2.88,1.93-10.26,7.46-16.46,17.04
			c-6.33,9.76-8.15,18.76-10.27,29.18c-2.54,12.5-2.45,22.23-2.3,25.84c0.31,7.38,1.39,12.73,2.88,20.13
			c2.51,12.47,3.77,18.72,6.85,24.66c6.07,11.68,15.74,18.5,20.96,21.52c9.85,5.7,19.14,6.83,33.2,8.54
			c3.62,0.44,8.02,0.68,16.79,1.16c11.07,0.6,20.63,1.12,31.87,0.58c7.69-0.37,12.33-0.59,18.43-1.72c1.23-0.23,2.59-0.45,4.04-0.69
			c10.35-1.7,26-4.26,32.17-16l0.64-1.21c2.87-5.43,5.58-10.56,7.37-20.49c0.44-2.43,4.18-24.74,0.57-58.97
			c-0.53-5.03-1.86-9.64-3.04-13.71c-0.35-1.23-0.69-2.4-1-3.53c-1.72-6.45-3.94-13.8-8.42-19.53c-2.21-2.81-4.69-5.39-7.4-7.66
			c-8.04-6.75-15.94-9.15-25.09-11.94c-11.64-3.55-21.2-4.15-28.19-4.59C357.77,607.12,355.38,607.05,352.72,607.05z"/>
	</g>
</g>
<path d="M1634.19,0l7.36,99.95c4.13,56.1,6.2,112.34,6.2,168.59v73.81v269.73c0,0,0,94.31-4.61,147.83
	c-1.61,18.69-2.34,37.43-2.05,56.18c0.25,16.53,0.85,35.23,2.17,48.38c0.27,2.72,0.82,5.4,1.38,8.08
	c0.52,2.46,1.17,15.22-0.46,73.77c-0.38,13.61,8.37,26.11,21.54,29.58c2,0.53,4.06,0.83,6.14,0.83c0,0,55.25-6.03,69.32-13.06
	c0,0,19.59-5.53,33.15-3.01c0,0,18.08-1.51,19.59-27.12c0,0-8.54-109.5-8.54-145.66c0,0-3.52-152.7-4.02-169.27
	c0,0,4.52-120.55,5.02-140.14c0,0,0.5-122.06,1-142.65L1788.9,0H1634.19z"/>
<g>
	<path class="st4" d="M0,1080h568.24c6.6-8.23,10.56-18.67,10.56-30.04v-68.22h-2.04c-12.3-41.42-79.15-73.08-159.78-73.08
		c-27.66,0-53.69,3.73-76.46,10.29c-5.16-45.47-75.49-81.49-161.49-81.49c-59.52,0-111.52,17.25-139.63,42.95
		c-10.23-9.35-23.63-17.57-39.4-24.26V1080z"/>
	<path class="st4" d="M1920,1080V918.3c-38.03-27.27-98.67-44.92-167-44.92c-76.7,0-143.71,22.23-179.93,55.34
		c-36.22-33.11-103.23-55.34-179.93-55.34c-98.1,0-180.36,36.36-202.59,85.35c-69.24,18.2-116.92,56.4-116.92,100.57v20.7H1920z"/>
	<path class="st7" d="M946.47,1080c-28.55-24.65-79.45-41.06-137.5-41.06c-27.66,0-53.69,3.73-76.46,10.29
		c-5.16-45.47-75.49-81.49-161.49-81.49c-59.52,0-111.52,17.25-139.63,42.95c-28.1-25.69-80.11-42.95-139.63-42.95
		c-76.12,0-139.96,28.22-157.21,66.23c-36,9.47-64.47,25.9-79.35,46.02H946.47z"/>
</g>
</svg>
