<?xml version="1.0" encoding="utf-8"?>
<!-- Generator: Adobe Illustrator 26.0.3, SVG Export Plug-In . SVG Version: 6.00 Build 0)  -->
<svg version="1.1" xmlns="http://www.w3.org/2000/svg" xmlns:xlink="http://www.w3.org/1999/xlink" x="0px" y="0px"
	 viewBox="0 0 1920 1080" style="enable-background:new 0 0 1920 1080;" xml:space="preserve">
<style type="text/css">
	.st0{fill:#3D1E26;}
	.st1{fill:#261015;}
	.st2{fill:#601521;}
	.st3{clip-path:url(#SVGID_00000017518315540815785630000004186431670480112308_);}
	.st4{fill:#3C171F;}
	.st5{fill:#481921;}
	.st6{fill:#6A2735;}
	.st7{fill:#B1939C;}
	.st8{fill:none;stroke:#2C1B20;stroke-width:7;stroke-miterlimit:10;}
	.st9{fill:#FDE482;}
	.st10{fill:#2C1B20;}
	.st11{fill:#471A21;}
	.st12{fill:none;stroke:#803646;stroke-width:4;stroke-miterlimit:10;}
	.st13{fill:#F2F2F2;stroke:#5E5C5C;stroke-width:3;stroke-miterlimit:10;}
	.st14{fill:#FFFFFF;}
</style>
<g id="Layer_4">
	<rect class="st0" width="1920" height="725.51"/>
</g>
<g id="Layer_2">
	<rect y="725.51" class="st1" width="1920" height="354.49"/>
</g>
<g id="Layer_3">
	<polygon class="st2" points="162.32,725.51 0,1080 0,0 162.32,0 	"/>
</g>
<g id="Layer_5">
	<g>
		<defs>
			<rect id="SVGID_1_" x="1661.79" width="255.22" height="858.79"/>
		</defs>
		<clipPath id="SVGID_00000062173832634621217420000002250180553758345608_">
			<use xlink:href="#SVGID_1_"  style="overflow:visible;"/>
		</clipPath>
		<g style="clip-path:url(#SVGID_00000062173832634621217420000002250180553758345608_);">
			<polygon class="st4" points="1920,195.3 1862.54,195.3 1862.54,89.26 1759.98,89.26 1759.98,0 1649.49,0 1649.49,831.55 
				1755.54,831.55 1759.98,831.55 1862.54,831.55 1920,831.55 			"/>
			<polygon class="st5" points="1799.83,0 1755.71,89.26 1861.75,89.26 1906.38,0 			"/>
			<polygon class="st6" points="1755.57,1 1755.71,89.26 1800.02,1 			"/>
			<polygon class="st6" points="1903.65,1 1861.75,89.26 1862.54,195.3 1915.16,89.26 1912.61,1 			"/>
			<polygon class="st5" points="1920,89.26 1914.77,89.26 1861.75,195.3 1920,195.3 			"/>
		</g>
	</g>
</g>
<g id="Layer_6">
	<g>
		<ellipse class="st7" cx="969.94" cy="235.12" rx="62.94" ry="7.72"/>
		<line class="st8" x1="969.73" y1="138.28" x2="969.73" y2="0"/>
		<circle class="st9" cx="969.94" cy="233.25" r="21.79"/>
		<path class="st10" d="M969.73,235.12l-62.73,0l31.37-54.33l26.79-46.4c2.04-3.53,7.12-3.53,9.16,0l26.79,46.4l31.37,54.33
			L969.73,235.12z"/>
	</g>
</g>
<g id="Layer_8">
	<g>
		<path class="st11" d="M50.84,557.49c29.85-33.57,25.7-34.82,36.05-43.37c32.82-27.12,80.77-19.81,123.75-13.26
			c34.25,5.22,53.6,8.17,61,22.86c11.57,22.95-1.03,33.48,10.01,64.54c9.11,25.62,19.43,44.83,16.14,61.82
			c-2.07,10.7-14.69,11.77-16.15,24.28c-0.99,8.53-3.97,15.61-6.48,31.73c-7.13,45.72,0.09,41.05,6.81,47.37
			c13.2,12.42,28.96,7.65,37.17,18.75c3.65,4.93,5.19,19.15,11.92,23.58c18.67,12.29,13.85,14.34,22.16,40.07
			c5.25,16.26,26.18,18.24,22.53,32.08c-2.79,10.58-28.43,8.69-32.43,8.5c-12.36-0.58-20.96-0.69-33.96-1.58
			c-53.46-3.64-37.03-5.21-62.47-12.92c-29.97-9.09-82.99,15.51-96.76-7.51c-16.84-28.16-24.07-16.68-41.4-56.99
			c-2.44-5.69,6.18-46.76,4.93-62.84c-0.39-4.98,16.73-28.22,9.43-30.59c0,0-16.69-5.43-37.22-17.75
			c-18.13-10.88-41.03-24.01-32.22-60.56C55.75,617.07,24.86,586.71,50.84,557.49z"/>
		<g>
			<path class="st12" d="M278.62,573.58c0,0-103.52,89.6-220.26,52.55c0,0-45.15-0.4-37.5,46.75"/>
			<path class="st12" d="M58.36,626.12c0,0-27.66,19.09-15.72,46.4"/>
		</g>
		<g>
			<path class="st12" d="M272.76,722.81c0,0-104.53,51.29-158.87,31.48c0,0-8.86-3.66-18.86-3.09"/>
			<path class="st12" d="M113.89,754.29c0,0-14.66,5.83-12.81,12.01"/>
		</g>
		<g>
			<path class="st12" d="M324.19,784.08c0,0-36.85,67.39-79.21,76.44c0,0-43.81-1.22-50.66,19.62"/>
			<path class="st12" d="M244.98,860.52c0,0-2.81,23.79-77.14,8.16"/>
		</g>
	</g>
</g>
<g id="walk">
	<g>
		<path class="st13" d="M1346.25,825.93c0.15-0.46,0.8-2.47,2.34-4.69c1.06-1.52,2.85-4.14,5.86-4.69c0.69-0.13,1.48-0.31,2.34,0
			c1.34,0.49,2.23,2.05,2.93,5.86c1.01,5.47,0.59,8.79,0.59,8.79c-1.05,8.24-0.84,19.51-0.59,32.81c0.11,5.82,0.43,10.55-0.59,17.58
			c-0.08,0.55-0.67,4.47-2.34,9.38c-2.37,6.95-4.56,8.99-5.86,9.96c-1.11,0.83-3.22,2.41-5.27,1.76c-2.54-0.81-3.34-4.48-3.52-5.27
			c-0.19-0.86-0.05-1.07,0-4.1c0.03-1.56,0-3.13,0-4.69c0-3.71,0-7.42,0-11.13c0-10.16,0-15.23,0-15.23
			c0.3-11.13,0.8-9.38,1.17-20.51C1343.39,839.76,1344.18,832.44,1346.25,825.93z"/>
		<path class="st13" d="M1367.96,812.65c-6.9,1.22-12.04,7.06-12.39,14.06c-0.96,19.14-1.15,34.61-1.11,45.88
			c0.06,18.42,0.66,39.67-0.59,56.25c-0.32,4.29-0.82,16.43,2.93,32.23c0.08,0.33,0.16,1.83,0.59,2.93
			c1.36,3.54,3.88,5.39,4.69,5.86c3.7,2.14,9.91,3.2,13.48,0c1.86-1.67,2.59-4.12,2.93-5.27c0.38-1.29,0.51-2.41,0.59-5.27
			c0.11-3.84,0.02-6.76,0-7.62c-0.05-1.97-0.16-6.16,0-11.13c0.21-6.58,0.04-5.35,0-9.38c-0.03-3.75,0.2-5.14,1.17-6.45
			c0.59-0.79,1.3-0.98,7.62-1.76c5.2-0.64,6.12-0.69,7.03,0c0.68,0.51,1.21,1.33,1.76,5.27c0.52,3.72,0.57,6.69,0.59,11.13
			c0,1.04,0.01,3.42,0,7.62c-0.01,4.53-0.03,5.7,0,8.2c0.07,5.44,0.25,7.1,0.59,8.79c0.53,2.66,0.79,4,1.76,5.27
			c2.5,3.3,7.12,3.47,8.2,3.52c4.42,0.17,9.47-1.93,11.72-5.86c0.87-1.53,1.17-3.56,1.76-7.62c0.43-2.96,0.53-5.23,0.59-6.45
			c0.38-9,0.58-13.5,0.59-14.06c0.18-11.54,0.48-11.36,0.59-19.92c0.12-9.89-0.22-17.29-0.59-25.78c-0.23-5.26-0.5-11.54-1.17-19.92
			c-0.33-4.11-0.8-9.94-1.76-17.58c-0.88-7.07-1.54-12.3-2.93-18.75c-2-9.29-3.21-14.88-5.27-18.16
			C1404.66,808.12,1382.16,810.15,1367.96,812.65z"/>
		<path class="st13" d="M1408.95,821.62c-2.34,4.1-1.03,8.96-0.59,15.23c0.59,8.2,0.26,5.67,1.76,23.44
			c0.78,9.3,1.06,8.01,1.17,12.3c0.29,10.72,0.43,16.07-0.59,21.09c-0.12,0.61-0.62,2.98,0,5.86c0.3,1.39,0.73,3.25,2.34,4.69
			c1.64,1.46,3.56,1.65,4.69,1.76c0.83,0.08,3.44,0.3,5.86-1.17c0.87-0.53,2.43-1.71,4.1-5.86c1.54-3.81,1.97-7.15,2.34-11.72
			c0.53-6.57,0.59-11.13,0.59-11.13c0.13-10.79,0.32-16.2,0-22.27c-0.59-11.13-0.96-10.61-1.17-18.16
			c-0.01-0.23-0.08-4.42-0.59-7.62c-0.63-3.92-1.39-5.68-1.76-6.45c-0.85-1.78-1.47-3.09-2.93-4.1c-1.98-1.37-4.17-1.26-5.86-1.17
			c-1.03,0.05-3.4,0.2-5.86,1.76C1412.46,818.11,1410.23,819.38,1408.95,821.62z"/>
		<path class="st13" d="M1312.22,678.97c-4.55,5.81-6.84,13.06-8.74,20.19c-1.32,4.94-3.39,10.85-4.1,17.58
			c-3.33,31.57-0.57,53.36,0.59,59.77c1.97,10.96,5,16.17,8.2,22.27c7.43,14.15,27.04,15.64,37.5,17.58
			c6.25,1.16,10.93,1.38,18.75,1.76c11.17,0.53,20.32,0.06,32.23-0.59c8.87-0.48,13.3-0.72,16.99-1.17
			c14.28-1.74,23.8-2.9,33.98-8.79c5.61-3.25,15.44-10.26,21.68-22.27c3.2-6.16,4.48-12.5,7.03-25.2
			c1.51-7.52,2.61-12.96,2.93-20.51c0.09-2.16,0.46-12.55-2.34-26.37c-2.18-10.73-4.03-19.82-10.55-29.88
			c-6.89-10.63-15.06-16.28-16.99-17.58c-7.95-5.34-15.14-7.25-21.09-8.79c-8.54-2.2-17.14-2.47-33.98-2.93
			c-9.3-0.25-13.96-0.38-19.92,0c-7.41,0.47-17.07,1.14-28.71,4.69c-9.18,2.8-17.45,5.32-25.78,12.3
			C1316.85,673.58,1314.32,676.29,1312.22,678.97z"/>
	</g>
</g>
<g id="run">
	<g>
		<path class="st13" d="M1928.81,815.85c1.52-0.74,2.73-1.2,3.32-1.42c0.48-0.18,2.81-1.04,4.74-1.42c1.02-0.2,5.48-1.09,9.96,0.95
			c2.66,1.21,4.22,2.95,7.11,6.16c0.96,1.07,1.9,2.29,3.79,4.74c2.2,2.85,3.87,5.14,4.27,5.69c5.57,7.73,14.87,26.77,19.91,41.72
			c1.56,4.62,2.06,6.93,2.37,9.01c0.28,1.87,0.27,2.73,0.95,9.01c0.27,2.51,0.26,2.29,0.47,4.27c0.6,5.6,0.91,8.45,0.95,10.9
			c0.03,1.43-0.47,7.11-0.95,8.53c-0.04,0.11-0.5,1.85,0,2.37c0.36,0.37,0.84,0.9,0.95,0.95c1.9,0.95,11.68,5.49,17.54,9.48
			c0,0,5,2.92,8.06,6.64c0.53,0.65,0.85,1.23,0.95,1.42c0.27,0.52,1.2,2.25,0.95,3.79c-0.25,1.53-1.59,2.54-2.84,3.32
			c-6.92,4.3-12.8,4.74-12.8,4.74c-9.42,0.71-17.16-2.92-25.13-7.59c-5.27-3.09-9.29-4.31-11.85-7.59
			c-0.55-0.71-0.71-2.96-2.37-5.22c-0.4-0.55-0.69-1.52-2.37-1.9c-5.08-1.13-14.1-0.59-17.07,0.95c-1,0.52-4.37,8.39-7.59,14.22
			c-1.37,2.48-0.85,1.88-4.27,8.06c-4.34,7.86-7.02,11.12-8.06,12.33c-2.39,2.79-3.87,3.93-5.22,4.74c-2.98,1.8-5.71,2.25-6.64,2.37
			c-1.51,0.2-3.88,0.49-6.64-0.47c-1.73-0.61-4.08-1.43-5.22-3.79c-0.92-1.93-0.42-3.94,0.47-6.64c2.16-6.5,4.67-11.21,6.16-14.22
			c2.17-4.37,1.08-2.87,4.74-10.9c4.15-9.09,6.55-13.38,8.06-15.65c0.95-1.42,4.63-8.33,4.74-11.38c0.16-4.22-0.41-6.75-0.95-10.9
			c-0.95-7.29-0.38-7.49-1.42-14.22c-0.18-1.16-0.59-3.3-1.42-7.59c-1.81-9.37-2.1-10.3-2.84-14.7c-0.82-4.86-1.24-7.37-1.42-10.9
			c-0.3-5.75,0.24-9.13,0.47-10.43c0.41-2.26,0.87-4.71,2.37-7.59c0.3-0.58,1.51-2.82,3.79-5.22
			C1922.09,819.1,1925.55,817.43,1928.81,815.85z"/>
		<path class="st13" d="M1862.96,684.28c-4.74,5.91-7.18,13.32-9.22,20.61c-1.42,5.05-3.61,11.09-4.43,17.99
			c-3.81,32.35-1.25,54.74-0.14,61.33c1.89,11.27,4.93,16.66,8.14,22.95c7.45,14.61,27.55,16.38,38.26,18.5
			c6.4,1.27,11.2,1.56,19.22,2.04c11.45,0.69,20.85,0.31,33.07-0.2c9.1-0.38,13.66-0.58,17.45-0.99c14.67-1.61,24.46-2.68,34.98-8.6
			c5.8-3.26,15.97-10.33,22.52-22.58c3.36-6.28,4.75-12.77,7.53-25.76c1.65-7.7,2.84-13.26,3.26-21.01
			c0.12-2.22,0.63-12.87-2.08-27.08c-2.1-11.04-3.88-20.39-10.45-30.79c-6.93-10.99-15.25-16.89-17.22-18.25
			c-8.09-5.57-15.44-7.63-21.53-9.28c-8.73-2.36-17.55-2.75-34.83-3.43c-9.54-0.37-14.31-0.56-20.44-0.25
			c-7.61,0.39-17.53,0.96-29.52,4.45c-9.45,2.76-17.97,5.24-26.61,12.3C1867.78,678.81,1865.15,681.55,1862.96,684.28z"/>
		<path class="st13" d="M1877.41,855.22c1.21-1.13,2.45-1.62,3.64-2.08c1.63-0.64,2.9-0.81,4.68-1.04c3.2-0.42,4.81-0.63,6.77,0
			c1.88,0.6,3.11,1.63,3.64,2.08c1.27,1.08,2.08,2.47,3.64,5.21c1.89,3.3,1.39,3.19,2.16,4.73c0.86,1.73,1.84,2.86,3.84,3.84
			c0.64,0.31,2.31-1.54,3.08-2.31c3.96-3.96,16.08-19.05,17.99-21.88c0.05-0.08,0.21-0.33,0.52-0.52c1.17-0.73,2.96,0.17,3.64,0.52
			c2.66,1.35,9.44,6.63,9.37,14.05c-0.02,1.79-0.43,3.3-0.52,3.64c-0.78,2.8-2.25,4.64-3.12,5.73c-5.29,6.53-7.92,9.81-10.93,12.49
			c-1.97,1.75-6.57,5.73-13.01,9.37c-3.5,1.97-5.38,3.03-8.33,3.64c-1.85,0.38-6.79,1.33-11.97-1.04c-3.49-1.6-5.46-3.96-7.81-6.77
			c-2.53-3.03-3.88-5.71-5.21-8.33c-1.9-3.76-2.78-6.56-3.64-9.37c-1.35-4.38-1.35-5.9-1.04-7.29
			C1874.95,859.26,1875.48,857.03,1877.41,855.22z"/>
	</g>
</g>
<g id="symbols">
	<g>
		<g>
			<path class="st14" d="M1548.83,567.97v1.43c-0.99,0-1.62,0.52-1.88,1.56c-0.26,1.04-0.39,2.27-0.39,3.7v55.25h-14.18v-54.89
				c0-0.41-0.03-0.94-0.09-1.56c-0.06-0.62-0.18-1.23-0.35-1.83c-0.18-0.59-0.41-1.11-0.7-1.56c-0.29-0.45-0.67-0.67-1.14-0.67
				v-1.43H1548.83z M1546.47,649.23h-2.98h-6.83c-1.75,0.06-3.68,0.09-5.78,0.09c0-1.9,0.29-3.79,0.88-5.66
				c0.58-1.87,1.52-3.55,2.8-5.03c1.28-1.48,2.9-2.67,4.86-3.56c1.95-0.89,4.3-1.34,7.05-1.34V649.23z"/>
		</g>
		<g>
			<path class="st14" d="M1496,629.85c0.06,0.18,0.09,0.38,0.09,0.59c0,0.21,0,0.41,0,0.59c0,1.09-0.27,1.92-0.82,2.49
				c-0.54,0.57-1.21,0.86-1.99,0.86c-1.21,0-2.22-0.48-3.04-1.45c-0.82-0.97-1.47-2.13-1.95-3.49c-0.48-1.36-0.83-2.75-1.04-4.17
				c-0.21-1.42-0.32-2.58-0.32-3.49c0-3.08,0.69-5.68,2.08-7.79c1.39-2.11,3.13-3.97,5.21-5.57c2.08-1.6,4.35-3.08,6.79-4.44
				c2.45-1.36,4.71-2.85,6.79-4.48c2.08-1.63,3.82-3.5,5.21-5.62c1.39-2.11,2.08-4.74,2.08-7.88v-0.27c0-2.36-0.44-4.44-1.31-6.25
				c-0.88-1.81-1.98-3.37-3.31-4.67c-1.33-1.3-2.79-2.31-4.39-3.04c-1.6-0.72-3.19-1.18-4.76-1.36c-0.24-0.06-0.67-0.09-1.27-0.09
				c-1.45,0-3.1,0.27-4.94,0.82c-1.84,0.54-3.59,1.34-5.25,2.4c-1.66,1.06-3.05,2.37-4.17,3.94c-1.12,1.57-1.68,3.41-1.68,5.53
				c0,2.24,0.56,4.11,1.68,5.62c1.12,1.51,2.91,2.26,5.39,2.26c0.97,0,1.9-0.12,2.81-0.36c0.6-0.12,1.12-0.18,1.54-0.18
				c1.69,0,2.97,0.47,3.85,1.4c0.87,0.94,1.31,2.19,1.31,3.76c0,1.03-0.23,1.95-0.68,2.76s-1.04,1.49-1.77,2.04
				c-0.72,0.54-1.54,0.97-2.45,1.27c-0.91,0.3-1.81,0.45-2.72,0.45l-0.36-0.09h-0.18c-2.6-0.36-4.74-1.18-6.43-2.45
				c-1.69-1.27-3.04-2.76-4.03-4.48s-1.69-3.52-2.08-5.39c-0.39-1.87-0.59-3.59-0.59-5.16c0-2.72,0.57-5.1,1.72-7.16
				c1.15-2.05,2.66-3.77,4.53-5.16c1.87-1.39,4-2.43,6.39-3.13c2.39-0.69,4.82-1.04,7.29-1.04c3.5,0,6.9,0.48,10.19,1.45
				c3.29,0.97,6.21,2.4,8.74,4.3c2.54,1.9,4.58,4.29,6.12,7.16c1.54,2.87,2.31,6.24,2.31,10.1c0,3.5-0.71,6.58-2.13,9.24
				c-1.42,2.66-3.19,5.01-5.3,7.07c-2.11,2.05-4.44,3.87-6.98,5.44c-2.54,1.57-4.92,3.05-7.16,4.44c-1.45,0.85-2.73,1.65-3.85,2.4
				c-1.12,0.76-2.08,1.54-2.9,2.36c-0.82,0.82-1.44,1.69-1.86,2.63c-0.42,0.94-0.63,2.01-0.63,3.22c0,0.3,0.01,0.63,0.05,1
				C1495.89,629.12,1495.94,629.48,1496,629.85z M1501.07,643.07c0,1.75-0.6,3.23-1.81,4.44c-1.21,1.21-2.69,1.81-4.44,1.81
				c-1.75,0-3.25-0.6-4.48-1.81c-1.24-1.21-1.86-2.69-1.86-4.44s0.62-3.23,1.86-4.44c1.24-1.21,2.73-1.81,4.48-1.81
				c1.75,0,3.23,0.6,4.44,1.81C1500.47,639.84,1501.07,641.32,1501.07,643.07z"/>
		</g>
	</g>
</g>
</svg>
