<?xml version="1.0" encoding="utf-8"?>
<!-- Generator: Adobe Illustrator 26.0.3, SVG Export Plug-In . SVG Version: 6.00 Build 0)  -->
<svg version="1.1" xmlns="http://www.w3.org/2000/svg" xmlns:xlink="http://www.w3.org/1999/xlink" x="0px" y="0px"
	 viewBox="0 0 1920 1080" style="enable-background:new 0 0 1920 1080;" xml:space="preserve">
<style type="text/css">
	.st0{fill:#6C2D3E;}
	.st1{fill:#54151C;}
	.st2{fill:#6F1A25;}
	.st3{fill:#42131A;}
	.st4{fill:#301416;}
	.st5{fill:#3A1C23;}
	.st6{fill:#48151C;}
	.st7{fill:#F2F2F2;}
	.st8{fill:#5E5C5C;}
</style>
<g id="Background">
	<g>
		<polyline class="st0" points="0,0 1920,0 1920,1080 0,1080 		"/>
	</g>
</g>
<g id="Mountain">
	<path class="st1" d="M1920.1,398.13v541.98H0.1V526.64c0.69-4.98,1.43-10,2.74-15.05c0.31,3.4,0.61,6.8,0.92,10.19
		c4.7-13.65,0.6-29.06,9.24-41.67c0.52,0.03,1.05,0.06,1.57,0.09v44.77c0.44,0.05,0.88,0.11,1.32,0.16
		c1.66-3.33,3.32-6.67,4.98-10.01c0.49-0.02,0.98-0.04,1.48-0.06c1.11,6.6,2.23,13.2,3.34,19.8c0.38,2.26-0.67,5.08,3.32,5.63
		c0.98,0.14,1.74,2.92,2.33,4.58c1.84,5.11,3.54,10.26,5.3,15.4h1.51c3.05-10.19,6.11-20.37,9.16-30.55
		c0.49,0.02,0.98,0.04,1.47,0.06c1.13,7.29,2.26,14.57,3.39,21.83c2.1-0.28,5.23-1.56,6.2-0.63c1.73,1.65,2.22,4.6,3.08,7.06
		c0.37,1.08,0.41,2.29,0.53,3.45c0.51,5.05,6.9,8.23,11.26,5.27c2.41-1.63,1.55-3.53-0.98-4.89c-4.01-2.17-3.88-2.88,0.13-5.36
		c1.45-0.89,2.56-2.33,3.96-3.64c0.56,0.43,1.3,1.02,2.24,1.76c5.08-6.09-3.92-5.14-4.11-9.31c2.25-1.75,5-3.89,8.39-6.52
		c-2.15-0.55-3.6-0.57-4.55-1.25c-1.41-1.02-3.08-2.36-3.45-3.85c-0.23-0.91,1.79-2.34,2.74-3.58c1.25-1.64,2.99-3.17,3.55-5.03
		c0.85-2.84,0.54-6.01,1.36-8.85c0.59-2.02,2.23-3.73,3.4-5.58c2.12,1.37,4.77,2.34,6.22,4.22c1.55,2.01,1.84,4.94,2.93,7.35
		c2.54,5.59,6.4,9.74,14.86,9.88c-3.3,3.88-5.67,6.17-7.38,8.85c-1.12,1.75-1.29,4.08-1.89,6.14c1.97,0.51,3.91,1.21,5.91,1.44
		c1.28,0.15,2.68-0.68,3.97-0.55c2.75,0.28,4.77,1.3,2.68,4.51c-0.55,0.84-1.16,1.64-1.71,2.48c-4.83,7.37-4.76,7.56,3.38,10.45
		c4.48,1.59,4.75,4.19,0.36,11.08c2.97,0.7,5.53,1.31,8.9,2.11c2.03,5.5,6.88,7.48,13.3,3.89c13.02-7.28,26.7-12.79,41.42-15.65
		c6.62-1.29,11.49-6.71,12.51-13.58c0.35-2.28,1.44-4.45,2.19-6.67c0.59-0.09,1.18-0.18,1.76-0.26c1.49,2.43,2.78,5,4.52,7.25
		c2.05,2.66,4.52,5,6.75,7.53c6.81,7.75,17.04,5.67,25.56,8.45c18.22,5.93,35.29,14.17,52.14,23.03c2.37,1.25,4.76,2.47,8.16,4.23
		c1.33-6.62,2.56-12.79,3.8-18.95c0.44-0.07,0.88-0.14,1.33-0.21c1.04,4.4,3.3,8.92,2.88,13.18c-0.91,9.02,2.76,13.86,11.44,15.71
		c2.42-1.95,5.05-4.08,8.5-6.86c1.3,4,2.04,7.01,3.27,9.82c0.79,1.82,2.29,3.33,3.47,4.99c0.94-1.62,2.3-3.13,2.73-4.87
		c1.86-7.44,3.43-14.94,5.13-22.42c0.35-1.53,0.81-3.03,1.55-5.74c3.42,8.59,3.43,16.29,3.17,24.05c-0.12,3.48-0.61,7.13,0.26,10.4
		c0.63,2.38,3.16,5.88,4.94,5.94c2.25,0.07,5.24-2.41,6.76-4.58c2.32-3.31,3.66-7.31,6.64-11c1.11,3.5,2.22,7,3.86,12.18
		c2.17-4.21,3.56-7.24,5.3-10.08c0.5-0.81,1.94-1.17,3.02-1.5c6.25-1.95,8.01-4.09,7.61-10.49c-0.2-3.24,0.09-5.93,3.9-6.18
		c3.76-0.26,3.93,2.97,4.48,5.54c0.25,1.13,0.36,2.33,0.26,3.48c-0.42,4.6,1.49,6.52,6.84,5.24c0.76-4.41,1.38-9.15,2.48-13.78
		c0.4-1.67,1.95-3.08,2.98-4.61c1.25,1.74,3.41,3.39,3.58,5.22c0.51,5.46,0.2,10.99,0.29,16.48c0.03,1.56,0.33,3.11,0.6,5.51
		c1.99-1.46,3.22-2.25,4.33-3.19c13.34-11.27,28.36-14.43,45.4-9.99c8.11,2.11,16.57,2.94,24.87,4.34c0.83,0.14,1.68,0.22,2.52,0.21
		c9.84-0.14,11.52-1.67,12.45-11.28c0.38-3.98,0.41-8.03,1.17-11.93c0.67-3.41,2.15-6.66,3.27-9.98c0.68,0.12,1.36,0.24,2.05,0.36
		v25.34c0.5,0.26,1.01,0.51,1.52,0.77c2.38-1.88,5-3.55,7.11-5.69c6.36-6.44,12.16-13.46,18.86-19.52
		c5.41-4.89,11.39-9.49,17.86-12.82c8.42-4.33,16-9.38,21.66-16.84c6.96-9.16,16.16-12.29,27.19-10.37
		c12.74,2.23,23.66-1.02,33.28-9.36c2.91-2.52,6.09-4.75,9.19-7.06c11.13-8.27,20.55-8.61,32.11-0.92
		c13.03,8.67,23.49,20.04,32.96,32.22c16.53,21.28,32.23,43.19,49.1,64.2c13,16.2,27.31,31.33,46.78,40.49
		c14.83,6.99,30.32,7.25,46.05,4.44c1.33-0.23,2.98-2.88,3.13-4.52c0.43-4.67,0.15-9.39,0.15-14.1c0.68-0.03,1.36-0.07,2.04-0.1
		c0.84,3.99,1.48,8.03,2.62,11.93c0.46,1.6,2.05,4.14,3.03,4.09c2.66-0.12,5.85-0.46,6.17-4.44c0.35-4.28,1.04-8.53,1.59-12.79
		c0.52-0.14,1.05-0.29,1.58-0.44c1.08,2.67,2.1,5.37,3.27,8c1.05,2.37,0.6,6.03,4.74,5.96c3.94-0.06,6.55-1.59,7.62-5.78
		c1.67-6.52,3.85-12.9,6.58-19.31c0.96,5.09,1.91,10.18,3.05,16.23c7.53-5.09,14.38-9.55,20.98-14.34c1.28-0.93,1.88-3.06,2.35-4.76
		c1.62-5.93,3.05-11.91,4.65-18.25c1.79,0.83,3.24,1.49,5.39,2.48c0.8-3.74,1.53-7.17,2.27-10.6c0.42-0.08,0.85-0.16,1.27-0.23
		c0.47,2.35,0.85,4.73,1.42,7.06c0.57,2.3-0.11,5.84,4.6,4.29c0.94-0.31,2.63,1.58,5.03,3.13c0.46-2.95,1.05-5.49,1.22-8.07
		c0.34-4.95-1.43-10.73,6.02-12.45c0.69-0.16,1.11-2.25,1.33-3.5c0.65-3.68,1.13-7.39,1.71-11.3c0.84,0.44,1.36,0.56,1.38,0.75
		c0.69,5.63,6.81,9.11,6.21,15.37c-0.08,0.89,2.06,2.72,3.22,2.75c1.09,0.04,2.53-1.55,3.27-2.74c0.65-1.07,0.19-2.79,0.85-3.85
		c1.23-2,2.92-3.73,4.41-5.57c0.43,0.28,0.86,0.57,1.28,0.85c0.74-3.12,1.47-6.23,2.2-9.35c0.38-0.01,0.75-0.01,1.12-0.02
		c1.77,4.39,3.54,8.77,5.89,14.6c3.61-7.87,6.67-14.52,9.85-21.45c0.72,0.51,1.8,1.27,3.72,2.64v-19.82
		c0.51-0.06,1.03-0.13,1.55-0.19c4.26,5.01,2.53,11.72,4.36,18.12c0.69-1.32,1.15-2.21,1.68-3.23c0.88,4.31,1.75,8.6,2.63,12.89
		c0.56-0.03,1.11-0.06,1.67-0.09c0.55-2.04,1.09-4.08,1.66-6.25c1.09,2.63,1.95,5.01,3.18,7.18c0.09,0.18,2.67-1,2.77-1.04
		c6.1,0.83,11.24,1.94,16.42,2.17c27.98,1.28,54.99-3.95,80.49-14.82c28.94-12.34,57.19-26.23,85.75-39.43
		c21.89-10.12,44.06-19.31,67.97-24.04c35.17-6.95,67.72-0.83,98.12,17.54c2.84,1.72,5.61,3.54,9.36,5.91
		c1.43-5.92,2.69-11.12,3.95-16.33c0.43-0.09,0.85-0.19,1.28-0.29c0.88,3.36,2.55,6.73,2.5,10.07c-0.13,8.24,2.66,13.81,11.64,14.99
		c2.49-1.76,5.25-3.71,8.46-5.98c2.16,4.92,3.95,8.99,5.74,13.05c0.8-0.02,1.61-0.04,2.42-0.06c2.55-9.09,5.11-18.18,7.67-27.27
		c0.41-0.02,0.82-0.04,1.24-0.07c0.49,3.51,0.84,7.04,1.51,10.51c1.23,6.33,2.27,12.74,4.13,18.89c1.23,4.06,3.71,4.33,6.7,1.15
		c2.91-3.11,5.41-6.6,8.4-10.3c1.32,3.14,2.5,5.98,3.32,7.93c5.2-1.52,10.07-2.61,14.63-4.45c1.94-0.78,3.43-3.01,4.73-4.86
		c1.11-1.56,1.64-3.52,2.86-6.29c1.8,5.09,3.27,9.23,5.04,14.23c3.73-7.86,7.14-15.01,10.54-22.17c0.65,0.08,1.31,0.16,1.96,0.24
		c0.49,2.26,1.2,4.49,1.43,6.78c1.06,10.6,1.88,21.23,3.03,31.82c0.31,2.86,1.48,5.63,2.56,9.52c1.87-2.35,2.95-3.72,4.4-5.55
		c2.26,3.17,4.44,6.21,7.49,10.48c2.07-8.38,3.86-15.66,5.66-22.93c0.49-0.04,0.97-0.07,1.46-0.1c0.55,3.56,1.17,7.12,1.63,10.69
		c0.61,4.75,0.95,9.55,1.76,14.26c0.21,1.18,1.59,2.74,2.74,3.07c5.95,1.72,12,3.1,18.25,4.66c0.55-2.07,0.92-3.48,1.56-5.89
		c2.78,2.89,5.1,5.32,7.43,7.75l1.5-0.72c1.25-7.46,2.49-14.92,3.73-22.38c0.21-0.02,0.43-0.04,0.65-0.06
		c0.64,6.73,1.15,13.47,2.02,20.16c0.2,1.57,1.3,3.86,2.53,4.3c3.06,1.07,3.58-1.53,3.74-3.78c0.45-6.79,0.82-13.59,1.2-20.39
		c0.21-3.63,0.37-7.27,0.55-10.91c0.43-0.04,0.87-0.07,1.31-0.1c0.48,5.2,0.96,10.4,1.44,15.61c0.63,0.09,1.26,0.19,1.89,0.28
		c7.98-8.31,4.15-19.52,6.55-29.48c0.53,4.23,1.06,8.45,1.59,12.68c4.34-14.24,0.86-29.95,8.94-43.19c0.55,0.06,1.1,0.12,1.66,0.18
		v45.4c0.41,0.1,0.82,0.19,1.23,0.29c1.68-3.28,3.35-6.56,5.03-9.83c0.48-0.03,0.96-0.06,1.44-0.09c1.14,6.74,2.29,13.48,3.41,20.22
		c0.32,1.95-0.66,4.56,3.06,4.54c0.7,0,1.59,2.23,2.07,3.55c2.01,5.59,3.89,11.23,5.82,16.85c0.5-0.02,1-0.03,1.5-0.05
		c2.97-10.14,5.95-20.28,8.93-30.42c0.46-0.03,0.92-0.06,1.39-0.1c1.08,7.34,2.16,14.68,3.25,22.01c6.31-0.77,8.7-4.99,8.62-11.42
		c0.54,0.14,1.08,0.28,1.62,0.42c2.62,3.69,5.24,7.39,8.26,11.64c-0.34,0.67-1.16,2.29-2.28,4.52c1.89,0.8,3.59,1.52,5.72,2.42
		c0.64-2.58,1.15-4.6,1.82-7.29c1.05,1.52,1.74,2.53,2.91,4.23c2.14-7.8,4.12-15.04,6.1-22.27c0.41,0.04,0.81,0.07,1.21,0.11
		c1.35,10.51,2.69,21.01,4,31.23c5.14,1.82,8.07,1,10.89-3.8c2.03-3.45,6.88-5.28,10.44-7.87c1.93-1.41,3.8-2.89,5.7-4.34
		c-1.59-1.81-3.17-3.63-4.77-5.42c-1.19-1.33-2.41-2.63-3.61-3.94c1.85-0.41,3.69-1.07,5.56-1.17c3.34-0.2,6.71-0.06,10.06-0.06
		c0.11-0.49,0.21-0.98,0.31-1.48c-2.21-2.29-4.42-4.58-7.47-7.73c4.19-0.64,7.34-0.8,10.26-1.68c1.69-0.5,3.02-2.15,4.52-3.28
		c-1.46-1.19-2.78-2.62-4.41-3.49c-1.96-1.04-4.18-1.59-6.15-3.51c3.03-0.86,6.07-1.73,10.09-2.87c-2.51-3.05-4.34-5.26-6.97-8.45
		c3.44-0.17,6.02-0.06,8.49-0.52c1.46-0.28,2.73-1.48,4.09-2.26c-0.83-1.13-1.47-2.54-2.56-3.34c-1.7-1.26-3.71-2.12-7.04-3.95
		c3.64-1.09,5.97-1.58,8.11-2.49c1.57-0.67,2.91-1.89,4.36-2.87c-1.02-1.2-1.95-2.5-3.08-3.58c-1.15-1.1-2.51-1.99-5.02-3.94
		c3.03-0.42,4.66-0.37,6.06-0.92c1.43-0.56,2.64-1.71,3.94-2.6c-1.13-0.96-2.22-1.99-3.41-2.87c-0.64-0.48-1.46-0.73-2.78-1.37
		c2.74-2.02,5.13-3.78,7.84-5.78c-1.6-1.38-2.7-2.32-4.15-3.57c1.28-1.44,2.53-2.85,3.9-4.38c-1.62-1.24-3.09-2.37-3.37-2.58
		c1.41-4.48,2.42-7.93,3.6-11.31c0.56-1.62,1.47-3.13,2.22-4.69c1.61,0.98,3.69,1.62,4.72,3.01c3.84,5.18,6.3,10.74,5.9,17.59
		c-0.12,1.96,3.49,4.13,5.98,6.85c0.02-0.02,0.02-0.04,0.03-0.04c0,0.08-0.32,0.97-0.86,1.7c-2.04,2.74-2.12,4.76,1.65,6.01
		c2.98,0.98,3.91,2.81,2.15,5.78c-0.91,1.55-1.23,3.43-1.82,5.17c2.06,0.32,4.13,0.66,6.2,0.95c0.63,0.08,1.27,0.01,2.79,0.01
		c-0.85,2.29-1.44,4.23-2.28,6.05c-1.71,3.76-1.36,6.46,3.35,7.35c1.15,0.22,2.27,0.66,3.36,1.12c3.88,1.63,4.05,2.88,0.83,5.36
		c-0.92,0.71-1.87,1.42-2.68,2.25c-4.3,4.38-3.97,7,1.22,10.25c0.98,0.61,1.98,1.2,2.6,1.58c0.99-1.73,2.16-3.11,2.62-4.69
		c2.15-7.47,4.22-14.97,5.22-22.72c0.21-1.6,1.83-3.03,2.79-4.53c1.36,0.98,3.32,1.68,3.96,3.01c2.32,4.75,4.18,9.71,6.23,14.61
		c1.45-0.56,2.93-1.15,4.42-1.73c0.44,0.56,0.88,1.12,1.31,1.68c-2.16,1.12-4.33,2.24-7.14,3.69c2.78,2.17,4.01,3.13,5.45,4.26
		c-0.45,1.12-0.92,2.32-1.49,3.75c0.52,0,1.02,0.15,1.35-0.03c1.94-1,3.94-1.95,5.71-3.21c0.82-0.58,1.64-1.83,1.63-2.78
		c-0.03-15.91-0.22-31.82-0.28-47.73c-0.01-1.79,0.56-3.58,0.89-5.37c0.15-0.8,0.72-1.7,0.5-2.38c-1.18-3.66-2.55-7.26-4.08-11.52
		c3.42-0.66,5.98-1.15,7.7-1.49c-0.41,1.85-1.7,4.6-1.03,5.19c2.99,2.65,6.35,2.03,9.91-0.57c-1.24-1.08-2.2-1.92-4.16-3.63
		c10.02,1.45,14.38,7.86,18.89,15.53c1.37-2.39,2.27-3.99,3.2-5.58c5.86-10.08,11.69-20.17,17.64-30.19
		c0.83-1.41,2.15-2.57,3.4-3.68c5.36-4.74,9.32-3.71,11.47,3.15c1.35,4.34,4.7,3.19,6.83,1.97c3.43-1.96,6.42-4.78,9.27-7.56
		c2.87-2.8,5.29-6.04,7.99-9.02c3.83-4.23,8.53-6.09,14.11-4.06c9.72,3.52,15.2,1.48,22.99-10.66
		C1902.86,412.7,1909.13,403.21,1920.1,398.13z"/>
</g>
<g id="Floor">
	<g>
		<path class="st2" d="M0.1,1081h1920V763.28c-639.98,11.2-1280.23,6.83-1920-13.12V1081z"/>
	</g>
</g>
<g id="Layer_5">
	<path class="st3" d="M43.93,765.04l40.65,21.82l148.53,83.15c0,0,51.93,29.07,79.96,48.16c9.79,6.66,19.88,12.85,30.29,18.47
		c9.18,4.95,19.67,10.38,27.32,13.7c1.59,0.69,3.23,1.21,4.88,1.71c1.52,0.47,8.75,4.03,40.48,23c7.38,4.41,17.01,3.35,23.06-2.97
		c0.92-0.96,1.74-2.02,2.39-3.19c0,0,14.05-32.88,14.59-42.94c0,0,3.11-12.7,8.76-19.54c0,0,4.85-10.62-8.78-19.36
		c0,0-62.98-28.96-82.9-40.11c0,0-85.19-45.1-94.48-49.93c0,0-26.67-16.3-48.63-29.67"/>
	<path class="st3" d="M1300.26,769.26l32.79,17.6l148.53,83.15c0,0,51.93,29.07,79.96,48.16c9.79,6.66,19.88,12.85,30.29,18.47
		c9.18,4.95,19.67,10.38,27.32,13.7c1.59,0.69,3.23,1.21,4.88,1.71c1.52,0.47,8.75,4.03,40.48,23c7.38,4.41,17.01,3.35,23.06-2.97
		c0.92-0.96,1.74-2.02,2.39-3.19c0,0,14.05-32.88,14.59-42.94c0,0,3.11-12.7,8.76-19.54c0,0,4.85-10.62-8.78-19.36
		c0,0-62.98-28.96-82.9-40.11c0,0-85.19-45.1-94.48-49.93c0,0-24.73-15.12-46.69-28.49"/>
</g>
<g id="Layer_4">
	<g>
		<path class="st4" d="M999.19,706.69c-8.81-19.66-41.41-34.25-80.29-34.25c-30.4,0-56.96,8.92-71.31,22.21
			c-14.35-13.29-40.91-22.21-71.31-22.21c-43.93,0-79.84,18.63-82.48,42.15c-11.63-3.4-24.93-5.32-39.05-5.32
			c-22.62,0-43.1,4.95-58.02,12.95c-8.12-7.96-21.29-14.44-37.41-18.37c-8.81-18.02-41.41-31.4-80.29-31.4
			c-30.4,0-56.96,8.18-71.31,20.36c-14.35-12.18-40.91-20.36-71.31-20.36c-43.93,0-79.84,17.08-82.48,38.63
			c-11.63-3.11-24.93-4.88-39.05-4.88c-4.51,0-8.93,0.19-13.25,0.54c-5.03-1.94-10.56-3.62-16.48-4.97
			c-8.81-16.83-41.41-29.32-80.29-29.32c-30.4,0-56.96,7.64-71.31,19.01c-7.9-6.26-19.51-11.39-33.42-14.74v111.07h137.84
			c4.5,4.99,11.27,8.17,18.83,8.17h419.34c4.39,6.77,11.94,11.24,20.53,11.24h424.32c13.56,0,24.55-11.13,24.55-24.86v-35.28
			C1045.53,729.32,1026.63,713.99,999.19,706.69z"/>
		<path class="st4" d="M1920.1,734.64c-14.2-6.59-33.44-10.64-54.62-10.64c-13.53,0-26.26,1.65-37.4,4.56
			c-2.53-20.13-36.92-36.08-78.98-36.08c-29.11,0-54.54,7.64-68.29,19.01c-13.74-11.37-39.18-19.01-68.29-19.01
			c-37.23,0-68.45,12.49-76.88,29.32c-9.59,2.28-18.09,5.49-25.02,9.37c-14.11-10.54-38.55-17.51-66.35-17.51
			c-13.53,0-26.26,1.65-37.4,4.56c-2.52-20.13-36.92-36.08-78.98-36.08c-29.11,0-54.54,7.64-68.29,19.01
			c-13.74-11.37-39.18-19.01-68.29-19.01c-37.23,0-68.45,12.49-76.88,29.32c-26.28,6.25-44.37,19.37-44.37,34.55v30.2
			c0,11.75,10.53,21.28,23.51,21.28h401.03c4.11,6.2,11.6,10.34,20.17,10.34h405.31V734.64z"/>
	</g>
</g>
<g id="Layer_1">
	<path d="M392.63,1l7.36,99.95c4.13,56.1,6.2,112.34,6.2,168.59v73.81v269.73c0,0,0,94.31-4.61,147.83
		c-1.61,18.69-2.34,37.43-2.05,56.18c0.25,16.53,0.85,35.23,2.17,48.38c0.27,2.72,0.82,5.4,1.38,8.08
		c0.52,2.46,1.17,15.22-0.46,73.77c-0.38,13.61,8.37,26.11,21.54,29.58c2,0.53,4.06,0.83,6.14,0.83c0,0,55.25-6.03,69.32-13.06
		c0,0,19.59-5.53,33.15-3.01c0,0,18.08-1.51,19.59-27.12c0,0-8.54-109.5-8.54-145.66c0,0-3.52-152.7-4.02-169.27
		c0,0,4.52-120.55,5.02-140.14c0,0,0.5-122.06,1-142.65L547.34,1H392.63z"/>
	<path d="M1634.3,1l7.36,99.95c4.13,56.1,6.2,112.34,6.2,168.59v73.81v269.73c0,0,0,94.31-4.61,147.83
		c-1.61,18.69-2.34,37.43-2.05,56.18c0.25,16.53,0.85,35.23,2.17,48.38c0.27,2.72,0.82,5.4,1.38,8.08
		c0.52,2.46,1.17,15.22-0.46,73.77c-0.38,13.61,8.37,26.11,21.54,29.58c2,0.53,4.06,0.83,6.14,0.83c0,0,55.25-6.03,69.32-13.06
		c0,0,19.59-5.53,33.15-3.01c0,0,18.08-1.51,19.59-27.12c0,0-8.54-109.5-8.54-145.66c0,0-3.52-152.7-4.02-169.27
		c0,0,4.52-120.55,5.02-140.14c0,0,0.5-122.06,1-142.65L1789,1H1634.3z"/>
</g>
<g id="Layer_6">
	<ellipse class="st5" cx="1017.19" cy="933.51" rx="369.7" ry="35.23"/>
</g>
<g id="Layer_8">
	<g>
		<path class="st4" d="M0,1082.96h566.69c7.59-8.5,12.21-19.71,12.21-32v-68.22h-2.04c-12.3-41.42-79.15-73.08-159.78-73.08
			c-27.66,0-53.69,3.73-76.46,10.29c-5.16-45.47-75.49-81.49-161.49-81.49c-59.52,0-111.52,17.25-139.63,42.95
			C29.25,872.04,15.81,863.8,0,857.1V1082.96z"/>
		<path class="st4" d="M1920.1,1082.96V919.3c-38.03-27.27-98.67-44.92-167-44.92c-76.7,0-143.71,22.23-179.93,55.34
			c-36.22-33.11-103.23-55.34-179.93-55.34c-98.1,0-180.36,36.36-202.59,85.35c-69.24,18.2-116.92,56.4-116.92,100.57v22.65H1920.1z
			"/>
		<path class="st6" d="M948.77,1082.96c-28.08-25.73-80.12-43.01-139.69-43.01c-27.66,0-53.69,3.73-76.46,10.29
			c-5.16-45.47-75.49-81.49-161.49-81.49c-59.52,0-111.52,17.25-139.63,42.95c-28.1-25.69-80.11-42.95-139.63-42.95
			c-76.12,0-139.96,28.22-157.21,66.23c-37.16,9.77-66.31,26.97-80.76,47.98H948.77z"/>
	</g>
</g>
<g id="Layer_9">
	<g>
		<g>
			<path class="st7" d="M592.19,787.33c-1.52-0.74-2.73-1.2-3.32-1.42c-0.48-0.18-2.81-1.04-4.74-1.42
				c-1.02-0.2-5.48-1.09-9.96,0.95c-2.66,1.21-4.22,2.95-7.11,6.16c-0.96,1.07-1.9,2.29-3.79,4.74c-2.2,2.85-3.87,5.14-4.27,5.69
				c-5.57,7.73-14.87,26.77-19.91,41.72c-1.56,4.62-2.06,6.93-2.37,9.01c-0.28,1.87-0.27,2.73-0.95,9.01
				c-0.27,2.51-0.26,2.29-0.47,4.27c-0.6,5.6-0.91,8.45-0.95,10.9c-0.03,1.43,0.47,7.11,0.95,8.53c0.04,0.11,0.5,1.85,0,2.37
				c-0.36,0.37-0.84,0.9-0.95,0.95c-1.9,0.95-11.68,5.49-17.54,9.48c0,0-5,2.92-8.06,6.64c-0.53,0.65-0.85,1.23-0.95,1.42
				c-0.27,0.52-1.2,2.25-0.95,3.79c0.25,1.53,1.59,2.54,2.84,3.32c6.92,4.3,12.8,4.74,12.8,4.74c9.42,0.71,17.16-2.92,25.13-7.59
				c5.27-3.09,9.29-4.31,11.85-7.59c0.55-0.71,0.71-2.96,2.37-5.22c0.4-0.55,0.69-1.52,2.37-1.9c5.08-1.13,14.1-0.59,17.07,0.95
				c1,0.52,4.37,8.39,7.59,14.22c1.37,2.48,0.85,1.88,4.27,8.06c4.34,7.86,7.02,11.12,8.06,12.33c2.39,2.79,3.87,3.93,5.22,4.74
				c2.98,1.8,5.71,2.25,6.64,2.37c1.51,0.2,3.88,0.49,6.64-0.47c1.73-0.61,4.08-1.43,5.22-3.79c0.92-1.93,0.42-3.94-0.47-6.64
				c-2.16-6.5-4.67-11.21-6.16-14.22c-2.17-4.37-1.08-2.87-4.74-10.9c-4.15-9.09-6.55-13.38-8.06-15.65
				c-0.95-1.42-4.63-8.33-4.74-11.38c-0.16-4.22,0.41-6.75,0.95-10.9c0.95-7.29,0.38-7.49,1.42-14.22c0.18-1.16,0.59-3.3,1.42-7.59
				c1.81-9.37,2.1-10.3,2.84-14.7c0.82-4.86,1.24-7.37,1.42-10.9c0.3-5.75-0.24-9.13-0.47-10.43c-0.41-2.26-0.87-4.71-2.37-7.59
				c-0.3-0.58-1.51-2.82-3.79-5.22C598.92,790.58,595.46,788.91,592.19,787.33z"/>
			<path class="st8" d="M612.85,940.06c-1.73-0.23-4.39-0.87-7.21-2.57c-1.35-0.82-2.97-2-5.58-5.05
				c-2.41-2.82-5.18-7.05-8.23-12.58c-2.1-3.81-2.72-5.05-3.21-6.05c-0.29-0.59-0.54-1.08-1.05-2.01c-1.32-2.4-2.67-5.13-3.86-7.54
				c-1.2-2.44-2.68-5.45-3.25-6.14c-2.65-1.23-10.98-1.84-15.91-0.75c-0.76,0.17-0.93,0.44-1.2,0.89c-0.1,0.16-0.19,0.3-0.28,0.43
				c-0.9,1.22-1.29,2.44-1.6,3.43c-0.24,0.75-0.43,1.34-0.8,1.82c-1.99,2.54-4.73,3.96-7.91,5.59c-1.38,0.71-2.81,1.45-4.37,2.36
				c-7.13,4.18-15.62,8.56-26,7.79c-0.25-0.02-6.33-0.52-13.48-4.96c-1.46-0.91-3.19-2.23-3.53-4.35c-0.32-2,0.74-4.03,1.1-4.73
				c0.21-0.4,0.57-1.02,1.12-1.68c3.07-3.73,7.86-6.62,8.42-6.95c5.13-3.48,13.06-7.32,16.46-8.96c0.44-0.21,0.8-0.39,1.06-0.51
				c0.11-0.11,0.26-0.27,0.41-0.43l0.1-0.1c0-0.28-0.08-0.78-0.16-1.05c-0.55-1.66-1.05-7.58-1.03-9.04
				c0.04-2.47,0.33-5.17,0.96-11.04c0.1-0.95,0.15-1.4,0.21-1.88c0.06-0.52,0.12-1.09,0.27-2.39c0.32-2.96,0.49-4.71,0.6-5.93
				c0.13-1.36,0.2-2.11,0.35-3.13c0.32-2.19,0.86-4.61,2.43-9.27c4.88-14.48,14.1-33.76,20.12-42.12c0.47-0.66,2.17-2.97,4.31-5.75
				c1.9-2.47,2.86-3.7,3.85-4.81c2.91-3.23,4.66-5.18,7.6-6.52c3.22-1.47,6.98-1.83,10.87-1.05c1.89,0.38,4.11,1.17,4.97,1.49
				c1.14,0.42,2.3,0.92,3.45,1.48c3.27,1.58,6.97,3.37,10.39,6.95c2.18,2.29,3.47,4.46,4.04,5.56c1.64,3.14,2.13,5.84,2.52,8.01
				c0.54,3.02,0.71,6.64,0.5,10.78c-0.19,3.7-0.64,6.32-1.44,11.08c-0.43,2.57-0.72,3.98-1.23,6.52c-0.37,1.84-0.86,4.28-1.62,8.21
				c-0.82,4.26-1.24,6.39-1.41,7.53c-0.54,3.48-0.64,5.13-0.75,7.05c-0.1,1.7-0.21,3.63-0.67,7.14c-0.11,0.86-0.23,1.66-0.33,2.41
				c-0.4,2.81-0.72,5.02-0.6,8.24c0.09,2.48,3.37,8.93,4.49,10.6c2.01,3.01,4.68,8.19,8.18,15.85c1.92,4.2,2.55,5.84,3.01,7.03
				c0.42,1.07,0.69,1.78,1.71,3.83l0.53,1.07c1.5,2.98,3.76,7.47,5.71,13.35c0.92,2.78,1.59,5.28,0.4,7.76
				c-1.4,2.92-4.21,3.91-6.07,4.56c-1.69,0.59-3.26,0.76-4.57,0.76C614.48,940.28,613.53,940.15,612.85,940.06z M574.8,786.8
				c-2.37,1.08-3.79,2.66-6.62,5.8c-0.92,1.02-1.85,2.23-3.72,4.66c-2.1,2.72-3.77,5-4.24,5.65c-5.13,7.12-14.48,25.84-19.71,41.32
				c-1.5,4.45-2.01,6.71-2.31,8.75c-0.14,0.95-0.21,1.62-0.33,2.98c-0.12,1.23-0.29,2.99-0.61,5.97c-0.14,1.32-0.21,1.88-0.27,2.41
				c-0.05,0.48-0.11,0.92-0.21,1.86c-0.62,5.77-0.9,8.43-0.94,10.77c-0.03,1.45,0.5,6.92,0.87,8.04c0.09,0.27,0.83,2.66-0.35,3.89
				l-0.27,0.29c-0.56,0.58-0.76,0.8-1.08,0.96c-0.27,0.13-0.7,0.34-1.25,0.61c-3.34,1.62-11.17,5.4-16.12,8.77l-0.09,0.05
				c-0.05,0.03-4.81,2.83-7.66,6.3c-0.4,0.49-0.66,0.94-0.79,1.2c-0.63,1.2-0.89,2.15-0.78,2.83c0.15,0.93,1.17,1.67,2.16,2.29
				c6.48,4.03,12.07,4.51,12.12,4.52c8.57,0.65,15.9-2.49,24.26-7.38c1.63-0.96,3.16-1.75,4.51-2.44c2.98-1.54,5.33-2.75,6.9-4.74
				c0.08-0.12,0.21-0.56,0.32-0.91c0.34-1.07,0.85-2.69,2.04-4.3c0.05-0.06,0.09-0.14,0.14-0.22c0.39-0.63,1.11-1.81,3.11-2.25
				c5.44-1.21,14.73-0.65,18.08,1.08c0.94,0.48,1.67,1.84,4.42,7.41c1.17,2.38,2.5,5.08,3.79,7.42c0.55,0.99,0.8,1.5,1.11,2.13
				c0.48,0.97,1.08,2.18,3.16,5.93c2.95,5.35,5.6,9.41,7.89,12.08c2.34,2.73,3.71,3.74,4.85,4.43c2.51,1.51,4.88,2.01,6.06,2.17
				c1.3,0.17,3.47,0.46,5.94-0.4c1.64-0.58,3.5-1.23,4.36-3.03c0.65-1.35,0.34-2.85-0.54-5.52c-1.88-5.67-4-9.88-5.54-12.95
				l-0.54-1.08c-1.08-2.17-1.39-2.97-1.82-4.08c-0.45-1.16-1.06-2.75-2.94-6.87c-3.38-7.41-6.05-12.6-7.94-15.44
				c-0.82-1.22-4.86-8.56-4.99-12.16c-0.13-3.49,0.21-5.82,0.63-8.78c0.11-0.74,0.22-1.53,0.33-2.38c0.44-3.4,0.55-5.19,0.65-6.93
				c0.11-1.91,0.22-3.71,0.78-7.33c0.19-1.19,0.6-3.35,1.43-7.64c0.76-3.94,1.25-6.39,1.62-8.23c0.51-2.52,0.79-3.91,1.21-6.43
				c0.85-5,1.23-7.35,1.4-10.73c0.2-3.9,0.05-7.29-0.45-10.09c-0.37-2.07-0.79-4.42-2.22-7.16c-0.4-0.77-1.55-2.77-3.55-4.88
				c-3.05-3.19-6.34-4.78-9.52-6.32l0,0c-1.07-0.52-2.14-0.98-3.19-1.37c-0.62-0.23-2.78-1.01-4.51-1.36
				c-1.21-0.24-2.32-0.34-3.34-0.34C578.02,785.62,576.11,786.21,574.8,786.8z M534.22,886.8L534.22,886.8
				C534.22,886.8,534.22,886.8,534.22,886.8z"/>
		</g>
		<g>
			<path class="st7" d="M658.04,655.76c4.74,5.91,7.18,13.32,9.22,20.61c1.42,5.05,3.62,11.09,4.43,17.99
				c3.81,32.35,1.25,54.74,0.14,61.33c-1.89,11.27-4.93,16.66-8.14,22.95c-7.45,14.61-27.55,16.38-38.26,18.5
				c-6.4,1.27-11.2,1.56-19.22,2.04c-11.45,0.69-20.85,0.31-33.07-0.2c-9.1-0.38-13.66-0.58-17.45-0.99
				c-14.67-1.61-24.46-2.68-34.98-8.6c-5.8-3.26-15.97-10.33-22.52-22.58c-3.36-6.28-4.75-12.77-7.53-25.76
				c-1.65-7.7-2.84-13.26-3.26-21.01c-0.12-2.22-0.63-12.87,2.08-27.08c2.1-11.04,3.88-20.39,10.45-30.79
				c6.93-10.99,15.25-16.89,17.22-18.25c8.09-5.57,15.44-7.63,21.53-9.28c8.73-2.36,17.55-2.75,34.83-3.43
				c9.54-0.37,14.31-0.56,20.44-0.25c7.61,0.39,17.53,0.96,29.52,4.45c9.45,2.76,17.97,5.24,26.61,12.3
				C653.23,650.29,655.86,653.03,658.04,655.76z"/>
			<path class="st8" d="M573.03,800.47c-9.1-0.38-13.66-0.58-17.5-1c-14.91-1.63-24.76-2.71-35.55-8.78
				c-5.72-3.22-16.33-10.51-23.11-23.18c-3.46-6.47-4.87-13.05-7.67-26.17c-1.66-7.76-2.86-13.37-3.29-21.23
				c-0.21-3.84-0.42-14.19,2.1-27.45c2.11-11.09,3.94-20.67,10.66-31.31c6.59-10.44,14.53-16.54,17.63-18.68
				c8.47-5.83,16.29-7.95,21.99-9.49c9.07-2.45,18.34-2.82,35.17-3.48c9.57-0.37,14.38-0.56,20.58-0.25
				c6.95,0.36,17.46,0.89,29.86,4.51c9.39,2.74,18.26,5.32,27.14,12.58c2.99,2.45,5.74,5.23,8.18,8.27
				c5.06,6.31,7.56,14.22,9.5,21.14c0.32,1.14,0.68,2.34,1.06,3.58c1.3,4.3,2.77,9.18,3.42,14.63c4.12,34.97,0.83,57.58,0.13,61.75
				c-1.8,10.74-4.64,16.28-7.65,22.13l-0.64,1.25c-6.91,13.56-23.94,16.56-35.2,18.54c-1.47,0.26-2.85,0.5-4.1,0.75
				c-6.5,1.29-11.36,1.58-19.42,2.06c-4.5,0.27-8.72,0.38-12.88,0.38C586.71,801.05,580.18,800.77,573.03,800.47z M573.58,632.7
				c-17.86,0.7-26.11,1.11-34.5,3.38c-5.8,1.57-13.03,3.53-21.08,9.07c-2.96,2.03-10.51,7.84-16.8,17.81
				c-6.42,10.17-8.19,19.48-10.25,30.27c-2.46,12.93-2.26,22.99-2.05,26.72c0.42,7.62,1.6,13.14,3.23,20.78
				c2.75,12.83,4.12,19.28,7.38,25.37c6.42,12,16.5,18.92,21.93,21.98c10.25,5.77,19.86,6.82,34.41,8.41
				c3.73,0.41,8.27,0.6,17.35,0.98c11.43,0.48,21.31,0.9,32.92,0.2c7.93-0.48,12.72-0.76,19.01-2.01c1.27-0.25,2.67-0.5,4.16-0.76
				c10.68-1.88,26.82-4.72,33.05-16.95l0.64-1.25c2.9-5.65,5.63-10.98,7.36-21.26c0.42-2.52,4-25.61-0.15-60.91
				c-0.61-5.19-2.04-9.93-3.31-14.12c-0.38-1.26-0.75-2.48-1.07-3.64c-1.86-6.64-4.24-14.21-8.95-20.08v0
				c-2.31-2.88-4.91-5.51-7.74-7.82c-8.4-6.87-16.59-9.26-26.08-12.03c-12.07-3.52-21.96-4.03-29.17-4.4
				c-2.13-0.11-4.1-0.16-6.16-0.16C583.9,632.3,579.73,632.46,573.58,632.7z"/>
		</g>
		<g>
			<path class="st7" d="M643.6,826.7c-1.21-1.13-2.45-1.62-3.64-2.08c-1.63-0.64-2.9-0.81-4.68-1.04c-3.2-0.42-4.81-0.63-6.77,0
				c-1.88,0.6-3.11,1.63-3.64,2.08c-1.27,1.08-2.08,2.47-3.64,5.21c-1.89,3.3-1.39,3.19-2.16,4.73c-0.86,1.73-1.84,2.86-3.84,3.84
				c-0.64,0.31-2.31-1.54-3.08-2.31c-3.96-3.96-16.08-19.05-17.99-21.88c-0.05-0.08-0.21-0.33-0.52-0.52
				c-1.17-0.73-2.96,0.17-3.64,0.52c-2.66,1.35-9.44,6.63-9.37,14.05c0.02,1.79,0.43,3.3,0.52,3.64c0.78,2.8,2.25,4.64,3.12,5.73
				c5.29,6.53,7.92,9.81,10.93,12.49c1.97,1.75,6.57,5.73,13.01,9.37c3.5,1.97,5.38,3.03,8.33,3.64c1.85,0.38,6.79,1.33,11.97-1.04
				c3.49-1.6,5.46-3.96,7.81-6.77c2.53-3.03,3.88-5.71,5.21-8.33c1.9-3.76,2.78-6.56,3.64-9.37c1.35-4.38,1.35-5.9,1.04-7.29
				C646.06,830.74,645.53,828.51,643.6,826.7z"/>
			<path class="st8" d="M616.23,865.65c-3.18-0.66-5.17-1.78-8.76-3.81c-4.63-2.62-9.1-5.83-13.28-9.56
				c-3-2.68-5.54-5.81-10.59-12.05l-0.5-0.62c-0.88-1.09-2.52-3.11-3.4-6.27c-0.17-0.6-0.56-2.2-0.58-4.03
				c-0.07-8.32,7.52-14.05,10.19-15.41c0.88-0.45,3.22-1.63,5.11-0.46c0.57,0.35,0.87,0.8,0.97,0.96
				c1.86,2.76,13.95,17.8,17.81,21.66l0.34,0.34c0.31,0.32,1.04,1.06,1.51,1.42c1.41-0.79,2.04-1.66,2.67-2.91
				c0.23-0.46,0.32-0.73,0.43-1.06c0.23-0.71,0.49-1.5,1.77-3.74c1.55-2.7,2.48-4.33,3.97-5.6c0.53-0.46,1.95-1.67,4.16-2.37
				c2.28-0.72,4.11-0.49,7.42-0.06c1.72,0.22,3.2,0.42,5.04,1.13c1.27,0.49,2.7,1.05,4.12,2.39c1.51,1.41,2.56,3.3,3.04,5.45
				c0.39,1.72,0.33,3.52-1.07,8.06c-0.82,2.65-1.74,5.65-3.74,9.6c-1.35,2.68-2.75,5.45-5.39,8.61c-2.43,2.91-4.53,5.43-8.33,7.17
				c-2.88,1.32-5.68,1.69-7.97,1.69C618.89,866.2,617.11,865.83,616.23,865.65z M628.96,825.01c-1.63,0.52-2.72,1.45-3.13,1.8
				c-1.05,0.89-1.77,2.12-3.31,4.81c-1.13,1.97-1.34,2.61-1.52,3.18c-0.13,0.4-0.27,0.81-0.6,1.47c-0.92,1.84-2.04,3.31-4.53,4.52
				c-1.53,0.74-3.03-0.79-4.48-2.28l-0.31-0.32c-4.06-4.06-16.22-19.21-18.17-22.1l-0.07-0.08c-0.07-0.05-0.54-0.25-2.17,0.58
				c-2.81,1.43-8.6,6.41-8.55,12.7c0.01,1.48,0.33,2.77,0.46,3.25c0.72,2.56,2.1,4.27,2.84,5.19l0.5,0.62
				c4.96,6.11,7.44,9.18,10.26,11.7c4.01,3.58,8.31,6.67,12.75,9.18c3.44,1.94,5.17,2.92,7.89,3.48c1.54,0.32,6.21,1.28,11.04-0.94
				c3.18-1.46,4.99-3.62,7.28-6.37c2.42-2.9,3.74-5.51,5.02-8.04c1.88-3.73,2.73-6.48,3.55-9.14c1.32-4.29,1.24-5.49,1.01-6.52
				c-0.44-1.97-1.42-3.22-2.17-3.92l0,0c-1-0.94-2.05-1.34-3.16-1.78c-1.49-0.58-2.68-0.74-4.33-0.95
				c-1.73-0.22-2.93-0.38-3.94-0.38C630.35,824.68,629.68,824.78,628.96,825.01z"/>
		</g>
	</g>
</g>
<g id="Layer_10">
	<g>
		<g>
			<path class="st7" d="M909.14,689.73c1.05,7.37-0.59,14.86-2.52,22.05c-1.33,4.99-2.49,11.19-5.26,17.43
				c-12.97,29.28-26.35,46.94-30.59,51.96c-7.24,8.59-12.51,11.62-18.38,15.34c-13.62,8.63-31.51,0.07-41.63-3.5
				c-6.05-2.13-10.25-4.29-17.28-7.9c-10.03-5.15-17.8-10.17-27.88-16.73c-7.51-4.88-11.27-7.33-14.27-9.58
				c-11.61-8.7-19.35-14.51-25.29-24.79c-3.27-5.66-8.34-16.74-7.75-30.38c0.3-6.99,2.38-13.18,6.53-25.57
				c2.46-7.34,4.24-12.64,7.76-19.4c1.01-1.94,5.91-11.2,15.32-21.87c7.3-8.28,13.49-15.3,24.26-20.82
				c11.37-5.83,21.36-6.66,23.7-6.82c9.64-0.66,16.88,1.27,22.87,2.93c8.57,2.37,16.23,6.46,31.19,14.54
				c8.26,4.46,12.39,6.69,17.42,10.02c6.24,4.14,14.35,9.58,22.74,18.55c6.62,7.06,12.58,13.43,16.35,23.73
				C907.81,682.69,908.66,686.33,909.14,689.73z"/>
			<path class="st8" d="M838.66,801.74c-8.88,0-17.81-3.36-24.54-5.9c-1.37-0.52-2.66-1-3.84-1.42c-6.15-2.17-10.41-4.35-17.47-7.98
				c-10.31-5.29-18.51-10.63-28.01-16.8c-7.56-4.91-11.32-7.36-14.35-9.63c-11.8-8.85-19.6-14.7-25.69-25.24
				c-3.23-5.59-8.56-17.07-7.95-31.19c0.31-7.21,2.42-13.48,6.61-25.98c2.49-7.41,4.28-12.76,7.85-19.62
				c1.74-3.35,6.75-12.22,15.52-22.17c7.34-8.33,13.68-15.52,24.7-21.16c10.8-5.53,20.58-6.72,24.28-6.98
				c10.1-0.7,17.76,1.43,23.37,2.98c8.91,2.46,16.93,6.8,31.5,14.66c8.3,4.49,12.46,6.73,17.53,10.1c5.7,3.78,14.32,9.5,23.01,18.77
				c6.58,7.02,12.79,13.65,16.66,24.24c1.3,3.57,2.24,7.3,2.78,11.09l0,0c0,0,0,0,0,0c1.13,7.87-0.73,15.82-2.55,22.65
				c-0.3,1.13-0.59,2.31-0.9,3.55c-1.06,4.29-2.25,9.16-4.44,14.1c-14.03,31.66-28.13,49.14-30.81,52.32
				c-6.91,8.19-12.08,11.45-17.56,14.91l-1.16,0.73C848.65,800.67,843.66,801.74,838.66,801.74z M799.76,610.53
				c-1.22,0-2.48,0.04-3.78,0.13c-3.52,0.24-12.82,1.38-23.12,6.66c-10.51,5.39-16.68,12.38-23.82,20.48
				c-8.56,9.71-13.42,18.32-15.11,21.57c-3.46,6.66-5.23,11.91-7.66,19.18c-4.11,12.24-6.17,18.38-6.46,25.17
				c-0.58,13.36,4.48,24.26,7.55,29.56c5.78,10.01,13.38,15.71,24.89,24.34c2.95,2.21,6.68,4.64,14.12,9.48
				c9.49,6.17,17.64,11.47,27.81,16.69c6.95,3.57,11.14,5.72,17.09,7.82c1.2,0.42,2.5,0.91,3.9,1.44
				c9.98,3.75,25.05,9.43,36.43,2.21l1.17-0.74c5.27-3.33,10.26-6.47,16.86-14.3c1.62-1.92,16.21-19.65,30.36-51.6
				c2.08-4.7,3.24-9.43,4.27-13.6c0.31-1.26,0.61-2.46,0.91-3.61c1.75-6.54,3.53-14.14,2.48-21.45v0c-0.51-3.59-1.4-7.12-2.63-10.49
				c-3.66-10.01-9.4-16.13-16.04-23.22c-8.45-9.02-16.56-14.4-22.48-18.32c-4.96-3.29-9.08-5.51-17.27-9.94
				c-15.49-8.36-22.67-12.15-30.91-14.43C813.42,612.18,807.46,610.53,799.76,610.53z"/>
		</g>
		<g>
			<path class="st7" d="M831.56,800.51c-0.62-1.03-1.29-1.59-2.29-2.43c-1.2-1.01-3.13-2.62-6.04-3.21
				c-1.11-0.22-2.38-0.48-3.88-0.02c-1.99,0.61-3.15,2.05-4.09,3.45c-1.52,2.24-2.14,3.92-2.42,4.97c-0.59,2.23-0.51,3.03-1.49,6.33
				c-0.7,2.38-1.99,3.64-2.59,3.76c-1.01,0.2-2.09-1.95-2.29-2.43c-1.1-2.57-1.61-5.02-1.77-5.44c-2.12-5.61-4.05-10.85-11.57-22.71
				c-4.23-6.67-6.59-9.85-9.09-12.43c-7.77-7.99-15.28-10.63-17.42-11.42c-0.74-0.27-2.56-0.82-4.05-1.23
				c-10.71-2.93-15.39,0.55-25.38-1.36c-1.76-0.34-5.16-0.02-7.36-2.31c-0.72-0.75-1.01-1.52-1.24-1.82
				c-3.82-5.03-7.48-12.39-11.87-16.52c-0.96-0.91-4.48-2.8-7.49-1.55c-1.61,0.67-2.44,2.01-2.77,2.55
				c-2.95,4.79,0.95,12.85,2.31,15.71c6.97,14.62,20.74,23.86,25.32,24c0.39,0.01,2.03-0.01,2.56,0.92c0.16,0.28,0.5,1.16-0.97,3.31
				c-3.53,5.19-11.84,12.25-16.59,17.25c-3.78,3.98-6.45,7.85-7.96,10.06c-2.34,3.42-3.81,6.04-4.88,7.97
				c-2.42,4.36-3.35,6.59-3.69,7.82c-0.13,0.46-0.37,1.33-1.14,2.11c-0.8,0.8-1.64,1.35-2.2,1.5c-2.46,0.62-4.73,0.11-6.47-0.1
				c-6.09-0.75-12.21-0.89-18.31-0.61c-4.81,0.22-8.46,0.5-10.55,0.79c-0.83,0.12-2.43,0.38-3.39,1.64
				c-1.17,1.54-0.74,3.72-0.48,4.98c0.17,0.82,0.84,3.59,5.12,8.48c0.95,1.08,2.85,3.7,5.65,5.47c8.64,5.48,18.72,6.64,38.82,8.84
				c1.24,0.14,3.47,0.26,5.95-0.72c3.18-1.26,5.12-3.79,5.85-4.64c2.73-3.19,2.74-5.28,4.62-6.46c0.71-0.45,2.34-0.33,3.44,0.32
				c3.45,2.06,7.48,7.31,7.85,10.61c0.11,0.98-0.59,1.62-0.7,1.81c-0.32,0.51-4.09,8.52-11.65,24.53
				c-0.58,1.23-3.91,8.35-7.03,18.07c-1.97,6.14-2.78,9.97-1.74,14.48c0.32,1.39,1.38,5.3,4.68,8.78c1.43,1.51,4.49,4.74,8.16,4.43
				c2.08-0.18,3.56-1.43,4.71-2.54c5.63-5.42,7.94-11.56,12.49-20.45c1.97-3.85,1.36-2.35,5.14-9.48c3.28-6.18,6.1-11.49,8.26-16.25
				c3.81-8.38,3.92-12.23,6.98-20.03c2.29-5.85,2.66-5.19,12.35-26.33c1.97-4.31,4.67-8.24,6.55-13.09
				c0.29-0.76,0.68-3.06,1.71-3.16c0.97-0.1,1.93,1.74,2.29,2.43c2.61,4.92,7.1,12.21,10.06,15.75c1.77,2.12,5.61,6.71,11.51,7.46
				c1.08,0.14,5.59,0.72,9.34-2.36c1.14-0.94,1.83-1.91,3.74-5.86c3.43-7.09,4.96-10.69,6.06-14.75c1.52-5.59,1.67-7.46,2.15-10.1
				c0.14-0.77,0.39-2.04,0.35-4.22C832.69,804.09,832.64,802.3,831.56,800.51z"/>
			<path class="st8" d="M728.52,929.53c-4.1,0-7.33-3.42-8.75-4.92c-3.3-3.48-4.58-7.43-5.05-9.47c-1.1-4.79-0.27-8.9,1.78-15.27
				c2.98-9.29,6.19-16.32,7.1-18.25c8.63-18.29,11.38-24.11,11.73-24.68c0.04-0.07,0.11-0.17,0.21-0.29
				c0.17-0.21,0.3-0.38,0.28-0.56c-0.31-2.73-3.98-7.61-7.13-9.5c-0.69-0.41-1.66-0.43-1.9-0.32c-0.6,0.38-0.92,0.94-1.53,2.07
				c-0.59,1.09-1.32,2.44-2.71,4.08l-0.18,0.22c-0.89,1.06-2.97,3.55-6.26,4.84c-2.06,0.81-4.24,1.08-6.66,0.82
				c-19.62-2.14-30.42-3.32-39.46-9.06c-2.54-1.61-4.36-3.81-5.46-5.13c-0.2-0.24-0.37-0.44-0.52-0.61
				c-2.12-2.42-4.79-5.97-5.46-9.16c-0.28-1.33-0.85-4.08,0.75-6.19c1.37-1.8,3.55-2.1,4.38-2.22c2.18-0.3,5.87-0.58,10.69-0.81
				c6.51-0.3,12.76-0.1,18.56,0.61c0.29,0.04,0.58,0.08,0.89,0.12c1.52,0.22,3.25,0.46,5.03,0.01c0.17-0.04,0.79-0.38,1.5-1.1
				c0.5-0.5,0.65-1.07,0.76-1.45c0.48-1.71,1.73-4.38,3.83-8.15c0.93-1.68,2.49-4.49,4.95-8.09c1.46-2.14,4.18-6.11,8.11-10.25
				c1.6-1.69,3.58-3.58,5.66-5.58c3.99-3.82,8.51-8.15,10.77-11.49c0.67-0.99,0.82-1.53,0.85-1.74c-0.11-0.04-0.43-0.13-1.16-0.15
				c-5.37-0.16-19.49-9.71-26.71-24.85c-1.55-3.26-5.58-11.7-2.23-17.14c0.38-0.63,1.41-2.29,3.47-3.15
				c3.71-1.54,7.8,0.63,9.09,1.85c2.9,2.73,5.43,6.7,7.88,10.54c1.43,2.24,2.78,4.35,4.16,6.17c0.1,0.14,0.22,0.33,0.35,0.58
				c0.18,0.33,0.4,0.73,0.77,1.11c1.31,1.36,3.35,1.54,4.99,1.69c0.56,0.05,1.1,0.1,1.57,0.19c4.38,0.84,7.63,0.6,11.08,0.35
				c4.11-0.3,8.36-0.61,14.41,1.04c1.38,0.38,3.32,0.95,4.18,1.27l0.18,0.06c2.47,0.91,9.99,3.69,17.79,11.72
				c2.66,2.74,5.09,6.05,9.28,12.67c7.51,11.84,9.51,17.15,11.63,22.77l0.08,0.21c0.05,0.13,0.13,0.41,0.24,0.82
				c0.25,0.96,0.72,2.74,1.51,4.56c0.19,0.44,0.52,0.98,0.78,1.31c0.36-0.39,0.9-1.18,1.29-2.48c0.56-1.9,0.76-2.93,0.96-3.93
				c0.13-0.69,0.27-1.41,0.52-2.36c0.44-1.68,1.33-3.51,2.63-5.42c1.13-1.67,2.5-3.31,4.9-4.04c1.86-0.56,3.45-0.25,4.61-0.01
				c3.28,0.66,5.43,2.45,6.71,3.53c1.04,0.87,1.87,1.56,2.62,2.81l0,0c1.31,2.18,1.35,4.35,1.37,5.28c0.04,2.25-0.21,3.62-0.36,4.44
				c-0.11,0.63-0.2,1.15-0.29,1.67c-0.34,2.04-0.69,4.15-1.9,8.63c-1.08,3.99-2.52,7.5-6.16,15.01c-1.92,3.97-2.73,5.22-4.14,6.37
				c-1.94,1.59-5.34,3.35-10.48,2.69c-6.48-0.83-10.68-5.85-12.47-7.99c-2.99-3.57-7.55-10.95-10.24-16.01
				c-0.31-0.58-0.54-0.96-0.72-1.21c-0.13,0.35-0.25,0.76-0.31,0.99c-0.09,0.32-0.18,0.6-0.25,0.79c-1.14,2.94-2.56,5.54-3.93,8.04
				c-0.96,1.75-1.86,3.4-2.65,5.13c-5.17,11.29-7.74,16.46-9.27,19.56c-1.37,2.77-2,4.03-3.04,6.7c-1.29,3.29-2.06,5.9-2.8,8.42
				c-1.03,3.5-2,6.81-4.22,11.68c-2.18,4.79-5.01,10.12-8.29,16.3c-2.01,3.79-2.8,5.17-3.37,6.18c-0.52,0.91-0.86,1.51-1.78,3.3
				c-0.89,1.73-1.69,3.36-2.44,4.89c-3.14,6.38-5.62,11.41-10.34,15.95c-1.39,1.34-3.15,2.74-5.62,2.95
				C728.94,929.52,728.73,929.53,728.52,929.53z M727.21,843.22c1.06,0,2.19,0.32,3,0.81c3.59,2.14,8.12,7.73,8.58,11.73
				c0.17,1.45-0.63,2.42-0.93,2.79c-0.37,0.64-4.82,10.08-11.55,24.35c-0.89,1.89-4.03,8.77-6.96,17.88
				c-1.92,5.98-2.66,9.55-1.71,13.68c0.4,1.75,1.5,5.12,4.31,8.08c1.29,1.37,3.99,4.19,6.94,3.96c1.61-0.14,2.8-1.17,3.8-2.12
				c4.34-4.17,6.6-8.76,9.73-15.11c0.76-1.55,1.57-3.19,2.46-4.94c0.95-1.86,1.32-2.51,1.84-3.42c0.57-0.99,1.34-2.35,3.31-6.08
				c3.27-6.16,6.08-11.46,8.22-16.17c2.13-4.68,3.07-7.89,4.07-11.29c0.76-2.58,1.54-5.26,2.88-8.67c1.09-2.79,1.78-4.18,3.15-6.94
				c1.52-3.08,4.08-8.22,9.23-19.47c0.83-1.82,1.81-3.6,2.75-5.32c1.33-2.42,2.7-4.93,3.76-7.69c0.05-0.13,0.1-0.32,0.17-0.54
				c0.37-1.27,0.98-3.39,2.8-3.57c1.97-0.19,3.17,2.1,3.75,3.2c2.62,4.95,7.04,12.09,9.9,15.51c1.7,2.03,5.23,6.26,10.55,6.94
				c4.09,0.53,6.71-0.81,8.2-2.03c0.86-0.71,1.44-1.42,3.34-5.36c3.54-7.32,4.94-10.71,5.96-14.49c1.18-4.33,1.51-6.37,1.84-8.33
				c0.09-0.54,0.18-1.07,0.28-1.64c0.15-0.83,0.36-1.97,0.32-3.93c-0.01-0.8-0.04-2.3-0.94-3.79c-0.49-0.81-1.01-1.25-1.97-2.05
				c-1.13-0.95-2.84-2.38-5.37-2.88c-1.04-0.21-2.01-0.4-3.14-0.06c-1.42,0.43-2.31,1.41-3.29,2.85c-1.09,1.61-1.86,3.17-2.21,4.51
				c-0.22,0.85-0.35,1.49-0.48,2.17c-0.2,1.02-0.42,2.17-1.02,4.21c-0.75,2.55-2.29,4.52-3.75,4.8c-2.17,0.42-3.58-2.43-3.96-3.31
				c-0.87-2.02-1.38-3.94-1.65-4.97c-0.07-0.25-0.11-0.44-0.15-0.54l-0.07-0.19c-2.06-5.47-4.01-10.64-11.36-22.23
				c-4.07-6.43-6.4-9.61-8.9-12.19c-7.33-7.54-14.37-10.14-16.68-11l-0.18-0.07c-0.66-0.25-2.43-0.78-3.93-1.19
				c-5.56-1.52-9.37-1.24-13.4-0.94c-3.49,0.26-7.09,0.52-11.86-0.39c-0.33-0.06-0.78-0.1-1.27-0.15c-1.91-0.17-4.8-0.42-6.89-2.59
				c-0.64-0.66-1.01-1.34-1.23-1.74c-0.05-0.09-0.09-0.17-0.13-0.23c-1.44-1.89-2.88-4.16-4.28-6.35c-2.35-3.68-4.78-7.49-7.41-9.97
				c-0.58-0.54-3.52-2.24-5.89-1.26c-1.17,0.48-1.8,1.51-2.07,1.95c-2.49,4.05,1.15,11.69,2.35,14.2
				c6.79,14.24,20.03,23.1,24.04,23.22c0.76,0.02,2.9,0.06,3.82,1.68c0.69,1.23,0.34,2.87-1.03,4.9
				c-2.44,3.59-6.88,7.85-11.18,11.96c-2.06,1.98-4.01,3.84-5.56,5.48c-3.77,3.96-6.4,7.81-7.81,9.88c-2.2,3.22-3.58,5.64-4.81,7.85
				c-1.95,3.52-3.15,6.04-3.56,7.5c-0.14,0.51-0.47,1.7-1.52,2.76c-0.47,0.47-1.68,1.59-2.9,1.89c-2.35,0.59-4.48,0.29-6.19,0.05
				c-0.29-0.04-0.57-0.08-0.83-0.11c-5.63-0.69-11.71-0.89-18.05-0.6c-4.66,0.22-8.36,0.49-10.41,0.78
				c-0.88,0.12-1.86,0.34-2.4,1.06c-0.78,1.03-0.41,2.81-0.21,3.76c0.42,1.99,2.12,4.76,4.78,7.8c0.16,0.19,0.35,0.41,0.57,0.67
				c1.04,1.26,2.62,3.16,4.75,4.51c8.45,5.36,18.39,6.45,38.18,8.61c0.71,0.08,2.86,0.31,5.23-0.62c2.58-1.02,4.25-3.02,5.06-3.98
				l0.2-0.24c1.19-1.39,1.81-2.54,2.35-3.55c0.66-1.22,1.28-2.37,2.61-3.21C725.77,843.37,726.48,843.22,727.21,843.22z
				 M808.3,811.93L808.3,811.93C808.3,811.93,808.3,811.93,808.3,811.93z"/>
		</g>
	</g>
</g>
</svg>
