<?xml version="1.0" encoding="utf-8"?>
<!-- Generator: Adobe Illustrator 26.0.3, SVG Export Plug-In . SVG Version: 6.00 Build 0)  -->
<svg version="1.1" id="shadow" xmlns="http://www.w3.org/2000/svg" xmlns:xlink="http://www.w3.org/1999/xlink" x="0px" y="0px"
	 viewBox="0 0 1920 1080" style="enable-background:new 0 0 1920 1080;" xml:space="preserve">
<style type="text/css">
	.st0{fill:#42131A;}
</style>
<path class="st0" d="M1288.15,877.36c-7.88,9.55-12.23,27.27-12.23,27.27c-0.76,14.04-20.36,59.93-20.36,59.93
	c-0.92,1.63-2.06,3.11-3.34,4.45c-8.44,8.82-21.88,10.3-32.18,4.15c-44.28-26.47-54.36-31.44-56.49-32.1
	c-2.3-0.71-4.59-1.43-6.81-2.39c-10.68-4.63-25.31-12.21-38.12-19.12c-14.54-7.84-28.62-16.48-42.28-25.77
	c-39.11-26.64-111.58-67.21-111.58-67.21l-26.04-14.58L757.49,710.54l-44.68-23.99l258.26,3.17c30.64,18.67,57.31,34.98,57.31,34.98
	c12.96,6.74,131.84,69.67,131.84,69.67c7.84,4.39,20.45,10.75,34.52,17.62c35.84,17.52,81.15,38.36,81.15,38.36
	C1294.92,862.55,1288.15,877.36,1288.15,877.36z"/>
<path class="st0" d="M1888.66,877.36c-7.88,9.55-12.23,27.27-12.23,27.27c-0.76,14.04-20.36,59.93-20.36,59.93
	c-0.92,1.63-2.06,3.11-3.34,4.45c-8.44,8.82-21.88,10.3-32.18,4.15c-44.28-26.47-54.36-31.44-56.48-32.1
	c-2.31-0.71-4.6-1.43-6.82-2.39c-10.68-4.63-25.31-12.21-38.12-19.12c-14.54-7.84-28.62-16.48-42.28-25.77
	c-39.11-26.64-111.58-67.21-111.58-67.21l-26.04-14.58L1358,710.54l-33.26-21.03l245.56-0.57c30.64,18.67,58.59,35.76,58.59,35.76
	c12.96,6.74,131.84,69.67,131.84,69.67c7.83,4.39,20.44,10.75,34.51,17.62c35.85,17.52,81.17,38.36,81.17,38.36
	C1895.43,862.55,1888.66,877.36,1888.66,877.36z"/>
</svg>
